<svg width="21" height="8" viewBox="0 0 21 8" fill="none" xmlns="http://www.w3.org/2000/svg">
<path d="M0.5 3.18213C0.223858 3.18213 0 3.40599 0 3.68213C0 3.95827 0.223858 4.18213 0.5 4.18213V3.68213V3.18213ZM20.8536 4.03568C21.0488 3.84042 21.0488 3.52384 20.8536 3.32858L17.6716 0.146595C17.4763 -0.0486671 17.1597 -0.0486671 16.9645 0.146595C16.7692 0.341857 16.7692 0.65844 16.9645 0.853702L19.7929 3.68213L16.9645 6.51056C16.7692 6.70582 16.7692 7.0224 16.9645 7.21766C17.1597 7.41292 17.4763 7.41292 17.6716 7.21766L20.8536 4.03568ZM0.5 3.68213V4.18213H20.5V3.68213V3.18213H0.5V3.68213Z" fill="#0000BF"/>
</svg>
