<svg width="21" height="8" viewBox="0 0 21 8" fill="none" xmlns="http://www.w3.org/2000/svg">
<path d="M20.5 3.18213C20.7761 3.18213 21 3.40599 21 3.68213C21 3.95827 20.7761 4.18213 20.5 4.18213V3.68213V3.18213ZM0.146447 4.03568C-0.0488155 3.84042 -0.0488155 3.52384 0.146447 3.32858L3.32843 0.146595C3.52369 -0.0486671 3.84027 -0.0486671 4.03553 0.146595C4.2308 0.341857 4.2308 0.65844 4.03553 0.853702L1.20711 3.68213L4.03553 6.51056C4.2308 6.70582 4.2308 7.0224 4.03553 7.21766C3.84027 7.41292 3.52369 7.41292 3.32843 7.21766L0.146447 4.03568ZM20.5 3.68213V4.18213H0.5V3.68213V3.18213H20.5V3.68213Z" fill="#0000BF"/>
</svg>
