<svg width="60" height="60" viewBox="0 0 60 60" fill="none" xmlns="http://www.w3.org/2000/svg">
<g clip-path="url(#clip0_132_479)">
<path d="M30.46 24C30.2 24.008 29.95 24.116 29.766 24.304L24.49 29.564L21.24 26.324C20.33 25.376 18.86 26.84 19.81 27.748L23.776 31.704C24.17 32.098 24.81 32.098 25.206 31.704L31.196 25.73C31.856 25.09 31.37 24 30.462 24H30.46ZM0.5 32H6.5C7.054 32 7.5 32.446 7.5 33C7.5 33.554 7.054 34 6.5 34H0.5C-0.054 34 -0.5 33.554 -0.5 33C-0.5 32.446 -0.054 32 0.5 32ZM0.5 24H6.5C7.054 24 7.5 24.446 7.5 25C7.5 25.554 7.054 26 6.5 26H0.5C-0.054 26 -0.5 25.554 -0.5 25C-0.5 24.446 -0.054 24 0.5 24ZM0.5 16H6.5C7.054 16 7.5 16.446 7.5 17C7.5 17.554 7.054 18 6.5 18H0.5C-0.054 18 -0.5 17.554 -0.5 17C-0.5 16.446 -0.054 16 0.5 16ZM48.5 38C45.75 38 43.5 40.25 43.5 43C43.5 45.75 45.75 48 48.5 48C51.25 48 53.5 45.75 53.5 43C53.5 40.25 51.25 38 48.5 38ZM48.5 40C50.168 40 51.5 41.332 51.5 43C51.5 44.668 50.168 46 48.5 46C46.832 46 45.5 44.668 45.5 43C45.5 41.332 46.832 40 48.5 40ZM22.5 38C19.75 38 17.5 40.25 17.5 43C17.5 45.75 19.75 48 22.5 48C25.25 48 27.5 45.75 27.5 43C27.5 40.25 25.25 38 22.5 38ZM22.5 40C24.168 40 25.5 41.332 25.5 43C25.5 44.668 24.168 46 22.5 46C20.832 46 19.5 44.668 19.5 43C19.5 41.332 20.832 40 22.5 40ZM12.5 12C10.856 12 9.5 13.356 9.5 15V37C9.5 38.644 10.856 40 12.5 40H16.5C17.852 40.02 17.852 37.98 16.5 38H12.5C11.928 38 11.5 37.572 11.5 37V15C11.5 14.428 11.928 14 12.5 14H38.5C39.072 14 39.5 14.428 39.5 15V38H28.5C27.18 38 27.204 40.02 28.5 40H42.5C43.82 40 43.808 38 42.5 38H41.5V20H49.954L57.5 31.792V37C57.5 37.572 57.072 38 56.5 38H54.5C53.192 38 53.192 40 54.5 40H56.5C58.144 40 59.5 38.644 59.5 37V31.5C59.5 31.31 59.446 31.12 59.344 30.96L51.344 18.46C51.16 18.174 50.844 18 50.5 18H41.5V15C41.5 13.356 40.144 12 38.5 12H12.5Z" fill="#0000BF"/>
</g>
<defs>
<clipPath id="clip0_132_479">
<rect width="60" height="60" fill="white"/>
</clipPath>
</defs>
</svg>
