<svg width="60" height="60" viewBox="0 0 60 60" fill="none" xmlns="http://www.w3.org/2000/svg">
<path d="M54.7956 30.0825C54.7984 30.0534 54.8125 30.0291 54.8125 30C54.8125 27.3131 54.2603 3.75 35.125 3.75H23.875C11.3631 3.75 4.1875 13.3181 4.1875 30C4.1875 30.0291 4.20156 30.0534 4.20438 30.0825C1.54 30.5241 -0.5 32.8378 -0.5 35.625V45C-0.5 48.1022 2.02281 50.625 5.125 50.625V55.3125C5.125 55.8309 5.54406 56.25 6.0625 56.25H13.5625C14.0809 56.25 14.5 55.8309 14.5 55.3125V50.625H44.5V55.3125C44.5 55.8309 44.9191 56.25 45.4375 56.25H52.9375C53.4559 56.25 53.875 55.8309 53.875 55.3125V50.625C56.9772 50.625 59.5 48.1022 59.5 45V35.625C59.5 32.8378 57.46 30.5241 54.7956 30.0825ZM23.875 5.625H35.125C52.4378 5.625 52.9375 27.5053 52.9375 30H51.0625C51.0625 27.6975 50.5891 7.5 34.1875 7.5H24.8125C13.9309 7.5 7.9375 15.4903 7.9375 30H6.0625C6.0625 8.79188 17.2225 5.625 23.875 5.625ZM22 22.5C17.8581 22.5 14.5 25.8581 14.5 30H9.8125C9.8125 12.9525 17.9697 9.375 24.8125 9.375H34.1875C40.1313 9.375 44.4147 12.3375 46.9197 18.1819C49.0234 23.0925 49.1875 28.4691 49.1875 30H29.5C29.5 25.8581 26.1419 22.5 22 22.5ZM27.625 30H16.375C16.375 26.8941 18.8941 24.375 22 24.375C25.1059 24.375 27.625 26.8941 27.625 30ZM12.625 54.375H7V50.625H12.625V54.375ZM52 54.375H46.375V50.625H52V54.375ZM57.625 45C57.625 47.0681 55.9431 48.75 53.875 48.75H5.125C3.05687 48.75 1.375 47.0681 1.375 45V35.625C1.375 33.5569 3.05687 31.875 5.125 31.875H53.875C55.9431 31.875 57.625 33.5569 57.625 35.625V45Z" fill="#0000BF"/>
<path d="M9.8125 36.5625C7.74437 36.5625 6.0625 38.2444 6.0625 40.3125C6.0625 42.3806 7.74437 44.0625 9.8125 44.0625C11.8806 44.0625 13.5625 42.3806 13.5625 40.3125C13.5625 38.2444 11.8806 36.5625 9.8125 36.5625ZM9.8125 42.1875C8.77844 42.1875 7.9375 41.3466 7.9375 40.3125C7.9375 39.2784 8.77844 38.4375 9.8125 38.4375C10.8466 38.4375 11.6875 39.2784 11.6875 40.3125C11.6875 41.3466 10.8466 42.1875 9.8125 42.1875Z" fill="#0000BF"/>
<path d="M49.1875 36.5625C47.1194 36.5625 45.4375 38.2444 45.4375 40.3125C45.4375 42.3806 47.1194 44.0625 49.1875 44.0625C51.2556 44.0625 52.9375 42.3806 52.9375 40.3125C52.9375 38.2444 51.2556 36.5625 49.1875 36.5625ZM49.1875 42.1875C48.1534 42.1875 47.3125 41.3466 47.3125 40.3125C47.3125 39.2784 48.1534 38.4375 49.1875 38.4375C50.2216 38.4375 51.0625 39.2784 51.0625 40.3125C51.0625 41.3466 50.2216 42.1875 49.1875 42.1875Z" fill="#0000BF"/>
<path d="M39.8125 37.5H19.1875C18.6691 37.5 18.25 37.9191 18.25 38.4375C18.25 38.9559 18.6691 39.375 19.1875 39.375H39.8125C40.3309 39.375 40.75 38.9559 40.75 38.4375C40.75 37.9191 40.3309 37.5 39.8125 37.5Z" fill="#0000BF"/>
<path d="M39.8125 41.25H19.1875C18.6691 41.25 18.25 41.6691 18.25 42.1875C18.25 42.7059 18.6691 43.125 19.1875 43.125H39.8125C40.3309 43.125 40.75 42.7059 40.75 42.1875C40.75 41.6691 40.3309 41.25 39.8125 41.25Z" fill="#0000BF"/>
<path d="M39.538 14.3384C39.1715 13.9718 38.579 13.9718 38.2124 14.3384C37.8459 14.705 37.8459 15.2975 38.2124 15.664L40.0874 17.539C40.2702 17.7218 40.5102 17.8137 40.7502 17.8137C40.9902 17.8137 41.2302 17.7218 41.413 17.539C41.7796 17.1725 41.7796 16.58 41.413 16.2134L39.538 14.3384Z" fill="#0000BF"/>
<path d="M34.8505 14.3374C34.484 13.9709 33.8915 13.9709 33.5249 14.3374C33.1584 14.704 33.1584 15.2965 33.5249 15.663L40.0874 22.2255C40.2702 22.4084 40.5102 22.5002 40.7502 22.5002C40.9902 22.5002 41.2302 22.4084 41.413 22.2255C41.7796 21.859 41.7796 21.2665 41.413 20.8999L34.8505 14.3374Z" fill="#0000BF"/>
</svg>
