<svg width="60" height="60" viewBox="0 0 60 60" fill="none" xmlns="http://www.w3.org/2000/svg">
<path fill-rule="evenodd" clip-rule="evenodd" d="M30.5 55C44.3079 55 55.5 43.8079 55.5 30C55.5 16.1921 44.3079 5 30.5 5C16.6921 5 5.5 16.1921 5.5 30C5.5 43.8079 16.6921 55 30.5 55ZM30.5 7.5C42.9271 7.5 53 17.5729 53 30C53 42.4271 42.9271 52.5 30.5 52.5C18.0729 52.5 8 42.4271 8 30C8 17.5729 18.0729 7.5 30.5 7.5ZM11.75 31.25H14.25C14.9404 31.25 15.5 30.6904 15.5 30C15.5 29.3096 14.9404 28.75 14.25 28.75H11.75C11.0596 28.75 10.5 29.3096 10.5 30C10.5 30.6904 11.0596 31.25 11.75 31.25ZM49.25 31.25H46.75C46.0596 31.25 45.5 30.6904 45.5 30C45.5 29.3096 46.0596 28.75 46.75 28.75H49.25C49.9404 28.75 50.5 29.3096 50.5 30C50.5 30.6904 49.9404 31.25 49.25 31.25ZM29.25 11.25V13.75C29.25 14.4404 29.8096 15 30.5 15C31.1904 15 31.75 14.4404 31.75 13.75V11.25C31.75 10.5596 31.1904 10 30.5 10C29.8096 10 29.25 10.5596 29.25 11.25ZM29.25 48.75V46.25C29.25 45.5596 29.8096 45 30.5 45C31.1904 45 31.75 45.5596 31.75 46.25V48.75C31.75 49.4404 31.1904 50 30.5 50C29.8096 50 29.25 49.4404 29.25 48.75ZM31.6585 30.3924C31.5735 30.696 31.3744 30.9679 31.0799 31.138L23.6372 35.4355C23.0395 35.7807 22.275 35.5759 21.9297 34.9781C21.5845 34.3802 21.7894 33.6157 22.3872 33.2705L29.4307 29.2034L33.1449 18.9951C33.3809 18.3464 34.0981 18.0117 34.7469 18.2479C35.3956 18.4839 35.7302 19.2011 35.4941 19.8499L31.6585 30.3924Z" fill="#0000BF"/>
</svg>
