<svg width="60" height="60" viewBox="0 0 60 60" fill="none" xmlns="http://www.w3.org/2000/svg">
<g clip-path="url(#clip0_132_457)">
<path d="M33.1713 47.5647H27.1339V43.6145C24.8208 43.4093 22.4129 42.7471 20.7792 41.8444L20.0795 41.4575L21.8241 34.6541L22.9908 35.293C24.1201 35.9113 26.4312 36.9489 29.2207 36.9489C30.6628 36.9489 32.1178 36.4917 32.1178 35.47C32.1178 34.785 31.6776 34.0026 28.4848 32.9238C24.7627 31.6714 20.4889 29.5853 20.4889 24.5299C20.4889 20.5956 23.0892 17.575 27.3366 16.488V12.4351H33.374V16.0563C35.9358 16.2635 37.6171 16.9286 38.6961 17.4362L39.476 17.8032L37.7191 24.4211L36.5547 23.8626C35.5436 23.3772 33.8514 22.5648 31.206 22.5648C30.2906 22.5648 28.7547 22.7306 28.7547 23.8411C28.7547 24.6813 30.9901 25.6043 32.9378 26.3146C38.153 28.1398 40.3835 30.7097 40.3835 34.9027C40.3835 36.9908 39.6509 38.8852 38.2646 40.3811C37.0116 41.7335 35.2628 42.6987 33.1713 43.2V47.5647ZM29.2004 45.4982H31.1048V41.4878L31.9625 41.3399C35.8821 40.6642 38.317 38.1975 38.317 34.9026C38.317 32.1921 37.2841 30.0251 32.2424 28.2606C29.1978 27.1502 26.6883 26.0549 26.6883 23.8411C26.6883 22.2251 27.8752 20.4983 31.206 20.4983C33.481 20.4983 35.1793 21.0188 36.3555 21.504L37.0295 18.9658C35.9709 18.5503 34.4574 18.1309 32.3099 18.0669L31.3075 18.0369V14.5016H29.4031V18.1756L28.5597 18.3332C24.8 19.036 22.5554 21.3525 22.5554 24.5299C22.5554 27.4869 24.5262 29.4116 29.145 30.9654C31.7629 31.8499 34.1843 33.0077 34.1843 35.47C34.1843 37.6238 32.236 39.0154 29.2207 39.0154C26.7613 39.0154 24.6335 38.3298 23.1797 37.6875L22.4887 40.3825C23.8174 40.9625 25.878 41.5397 28.198 41.6089L29.2004 41.6389V45.4982H29.2004Z" fill="#0000BF"/>
<path d="M46.9814 54.8933L47.4331 53.9546C47.2374 54.0947 47.0399 54.2328 46.8407 54.3683L46.9814 54.8933Z" fill="#0000BF"/>
<path d="M30.3145 57.3874C15.2132 57.3874 2.92731 45.1015 2.92731 30.0002C2.92731 14.8988 15.2132 2.61289 30.3145 2.61289C45.4159 2.61289 57.7021 14.8988 57.7021 30.0002C57.7021 34.8135 56.4523 39.3397 54.2627 43.2743L56.316 43.8244C58.518 39.6995 59.7685 34.9934 59.7685 30.0002C59.7685 13.7594 46.5555 0.546387 30.3145 0.546387C14.0737 0.546387 0.86084 13.7594 0.86084 30.0002C0.86084 46.2411 14.0737 59.4538 30.3145 59.4538C35.4741 59.4538 40.3273 58.1187 44.549 55.7781L43.9969 53.7177C39.9686 56.0506 35.2948 57.3874 30.3145 57.3874Z" fill="#0000BF"/>
<path d="M55.8864 59.454C55.6221 59.454 55.3577 59.3531 55.1559 59.1516L50.1448 54.1405L48.533 57.4902C48.3456 57.8797 47.9339 58.1117 47.5055 58.0711C47.0754 58.0307 46.7156 57.7269 46.6037 57.3097L42.8977 43.478C42.8023 43.1214 42.9043 42.7409 43.1652 42.48C43.4264 42.2188 43.8067 42.117 44.1633 42.2125L57.9947 45.9187C58.4118 46.0306 58.7157 46.3904 58.7561 46.8205C58.7961 47.2506 58.5646 47.6606 58.1752 47.848L54.8255 49.4601L59.8366 54.4709C60.0303 54.6647 60.139 54.9275 60.139 55.2014C60.139 55.4756 60.0303 55.7382 59.8366 55.9323L56.6172 59.1516C56.4154 59.3531 56.1508 59.454 55.8864 59.454ZM49.8455 51.3467C50.1171 51.3467 50.3806 51.4539 50.5761 51.6494L55.8864 56.9598L57.6447 55.2015L52.3344 49.8914C52.0977 49.6545 51.9902 49.3177 52.0463 48.9873C52.1026 48.6572 52.315 48.375 52.6169 48.2297L54.769 47.1938L45.3571 44.6719L47.8788 54.0837L48.9143 51.9319C49.0596 51.6301 49.3421 51.4176 49.6722 51.3614C49.7299 51.3516 49.7879 51.3467 49.8455 51.3467Z" fill="#0000BF"/>
<path d="M38.5099 9.75156C42.2176 9.75156 49.4344 13.8061 49.4344 21.2386C49.4344 21.8092 49.8968 22.2718 50.4676 22.2718C51.0382 22.2718 51.5009 21.8092 51.5009 21.2386C51.5009 17.3698 49.791 13.783 46.6864 11.1388C44.2232 9.04076 41.0136 7.68506 38.5098 7.68506C37.9393 7.68506 37.4766 8.14763 37.4766 8.71833C37.4766 9.28903 37.9393 9.75156 38.5099 9.75156Z" fill="#0000BF"/>
</g>
<defs>
<clipPath id="clip0_132_457">
<rect width="60" height="60" fill="white"/>
</clipPath>
</defs>
</svg>
