<svg width="158" height="51" viewBox="0 0 158 51" fill="none" xmlns="http://www.w3.org/2000/svg">
<g clip-path="url(#clip0_132_268)">
<g filter="url(#filter0_f_132_268)">
<path d="M5.0641 39.815V42.3798H30.5536V35.9348L5.0641 37.2586V39.815Z" fill="#D6D6D6"/>
<path d="M45.1827 42.3798V39.815V37.2586L30.5535 35.9348V42.3798H45.1827Z" fill="#D6D6D6"/>
<path d="M45.1827 34.7518V32.187V29.6223L30.5535 26.5363V33.428L45.1827 34.7518Z" fill="#D6D6D6"/>
<path d="M5.0641 32.187V34.7518L30.5536 33.428V26.5363L5.0641 29.6223V32.187Z" fill="#D6D6D6"/>
<path d="M5.0641 24.5589V27.1154L30.5536 24.0295V17.5845L5.0641 21.9942V24.5589Z" fill="#D6D6D6"/>
<path d="M45.1827 27.1154V24.5589V21.9942L30.5535 17.5845V24.0295L45.1827 27.1154Z" fill="#D6D6D6"/>
<path d="M5.0641 14.3662V16.9226V19.4874L30.5536 15.0777V5.1L5.0641 14.3662Z" fill="#D6D6D6"/>
<path d="M30.5535 5.1V15.0777L45.1827 19.4874V16.9226V14.3662L30.5535 5.1Z" fill="#D6D6D6"/>
</g>
<path d="M15.8824 47.7366V50.5512H45.2097V43.4784L15.8824 44.9311V47.7366Z" fill="#0000BF"/>
<path d="M62.0413 50.5512V47.7366V44.9311L45.2097 43.4784V50.5512H62.0413Z" fill="white"/>
<path d="M62.0413 42.1801V39.3655V36.5508L45.2097 33.1643V40.7274L62.0413 42.1801Z" fill="white"/>
<path d="M15.8824 39.3655V42.1801L45.2097 40.7274V33.1643L15.8824 36.5508V39.3655Z" fill="#0000BF"/>
<path d="M15.8824 30.9943V33.7998L45.2097 30.4132V23.3404L15.8824 28.1797V30.9943Z" fill="#0000BF"/>
<path d="M62.0413 33.7998V30.9943V28.1797L45.2097 23.3404V30.4132L62.0413 33.7998Z" fill="white"/>
<path d="M15.8824 19.8086V22.6141V25.4287L45.2097 20.5894V9.63966L15.8824 19.8086Z" fill="#0000BF"/>
<path d="M45.2097 9.63966V20.5894L62.0413 25.4287V22.6141V19.8086L45.2097 9.63966Z" fill="white"/>
<path d="M79.9105 34.7412H76.7202V29.6861C75.997 31.5282 75.0328 33.2132 73.8275 34.7412H70.8499V19.7044H74.0402V30.6928C75.1888 29.1791 75.9545 27.4298 76.3373 25.4449C76.5925 24.1026 76.7202 22.1891 76.7202 19.7044H79.9105V34.7412ZM91.163 29.8789C91.163 31.6781 90.8581 32.9491 90.2484 33.6916C89.582 34.5199 88.3767 34.934 86.6326 34.934C84.9027 34.934 83.6975 34.5127 83.0169 33.6702C82.4213 32.9276 82.1236 31.6639 82.1236 29.8789V24.5667C82.1236 22.7674 82.4213 21.5036 83.0169 20.7754C83.6833 19.9471 84.8886 19.533 86.6326 19.533C88.6461 19.533 89.9506 20.0828 90.5462 21.1823C90.9574 21.9392 91.163 23.4243 91.163 25.6377H87.8875V23.7742C87.8875 23.2601 87.8166 22.9031 87.6748 22.7032C87.4905 22.4747 87.1431 22.3604 86.6326 22.3604C86.1505 22.3604 85.8173 22.4604 85.633 22.6603C85.4486 22.846 85.3565 23.1815 85.3565 23.6671V30.7785C85.3565 31.264 85.4486 31.6067 85.633 31.8067C85.8173 32.0066 86.1505 32.1065 86.6326 32.1065C87.1715 32.1065 87.5259 31.9852 87.6961 31.7424C87.8237 31.5425 87.8875 31.1783 87.8875 30.65V28.0796H91.163V29.8789ZM102.26 29.9217C102.26 31.721 101.991 32.9491 101.452 33.6059C100.842 34.3628 99.6651 34.7412 97.921 34.7412H93.1993V19.7044H101.494V22.5318H96.3258V25.1022C96.8788 25.0165 97.4389 24.9737 98.0061 24.9737C99.5658 24.9737 100.686 25.4164 101.367 26.3017C101.962 27.0871 102.26 28.2938 102.26 29.9217ZM99.0696 29.9217C99.0696 29.1934 98.9987 28.6793 98.8569 28.3795C98.6442 27.9082 98.2259 27.6726 97.602 27.6726C97.1766 27.6726 96.7512 27.7083 96.3258 27.7797V31.9138H97.1553C97.8785 31.9138 98.3748 31.7638 98.6442 31.4639C98.9278 31.1641 99.0696 30.65 99.0696 29.9217ZM115.535 22.5746H112.153V34.7412H109.027V19.7044H115.535V22.5746ZM125.46 30.5C125.46 32.028 125.347 33.0562 125.12 33.5845C124.737 34.4842 123.9 34.934 122.61 34.934C122.085 34.934 121.625 34.8055 121.228 34.5484C120.958 34.3628 120.611 34.0272 120.185 33.5417V36.669H117.229V21.6322H119.973V22.8959C120.511 22.3819 120.93 22.032 121.228 21.8464C121.681 21.5893 122.206 21.4608 122.801 21.4608C123.893 21.4608 124.638 21.8892 125.035 22.746C125.318 23.3315 125.46 24.2454 125.46 25.4878V30.5ZM122.44 31.1855V25.2093C122.44 24.7381 122.376 24.4096 122.248 24.224C122.092 23.9669 121.781 23.8384 121.313 23.8384C120.845 23.8384 120.54 23.9455 120.398 24.1597C120.256 24.3596 120.185 24.7095 120.185 25.2093V31.1855C120.185 31.6853 120.249 32.028 120.377 32.2136C120.533 32.4421 120.845 32.5564 121.313 32.5564C121.781 32.5564 122.1 32.435 122.27 32.1922C122.383 32.0066 122.44 31.671 122.44 31.1855ZM135.466 26.366C135.466 28.4223 135.239 30.2359 134.786 31.8067C134.289 33.5203 133.474 35.141 132.34 36.669H127.278V34.7412H129.532C128.029 32.4564 127.278 29.6647 127.278 26.366V21.6322H130.234C130.234 25.2164 130.255 27.3156 130.298 27.9296C130.411 29.8717 130.773 31.8852 131.383 33.9701C131.978 31.8995 132.333 29.886 132.446 27.9296C132.489 27.3156 132.51 25.2164 132.51 21.6322H135.466V26.366ZM145.711 34.7412H142.776V24.1383H140.479V34.7412H137.544V21.6322H145.711V34.7412ZM156.179 34.7412H153.244V24.1383H150.947V34.7412H148.012V21.6322H156.179V34.7412Z" fill="white"/>
<path d="M79.9105 34.7412V34.8687C79.9809 34.8687 80.0371 34.8116 80.0371 34.7412H79.9105ZM76.7201 34.7412H76.5935C76.5935 34.8116 76.6503 34.8687 76.7201 34.8687V34.7412ZM76.7201 29.6861H76.8467C76.8467 29.6249 76.8037 29.5723 76.7439 29.5608C76.6842 29.5494 76.6249 29.5823 76.6027 29.6392L76.7201 29.6861ZM73.8275 34.7412V34.8687C73.8665 34.8687 73.903 34.851 73.9268 34.8205L73.8275 34.7412ZM70.8498 34.7412H70.7232C70.7232 34.8116 70.78 34.8687 70.8498 34.8687V34.7412ZM70.8498 19.7044V19.5769C70.78 19.5769 70.7232 19.6339 70.7232 19.7044H70.8498ZM74.0402 19.7044H74.1668C74.1668 19.6339 74.1106 19.5769 74.0402 19.5769V19.7044ZM74.0402 30.6928H73.9136C73.9136 30.7475 73.9486 30.7961 73.9997 30.8136C74.0514 30.8311 74.1081 30.8137 74.141 30.7702L74.0402 30.6928ZM76.7201 19.7044V19.5769C76.6503 19.5769 76.5935 19.6339 76.5935 19.7044H76.7201ZM79.9105 19.7044H80.0371C80.0371 19.6339 79.9809 19.5769 79.9105 19.5769V19.7044ZM79.9105 34.7412V34.6137H76.7201V34.7412V34.8687H79.9105V34.7412ZM76.7201 34.7412H76.8467V29.6861H76.7201H76.5935V34.7412H76.7201ZM76.7201 29.6861L76.6027 29.6392C75.8841 31.4698 74.9259 33.1439 73.7288 34.6619L73.8275 34.7412L73.9268 34.8205C75.1401 33.2825 76.1104 31.5865 76.8381 29.733L76.7201 29.6861ZM73.8275 34.7412V34.6137H70.8498V34.7412V34.8687H73.8275V34.7412ZM70.8498 34.7412H70.9764V19.7044H70.8498H70.7232V34.7412H70.8498ZM70.8498 19.7044V19.8319H74.0402V19.7044V19.5769H70.8498V19.7044ZM74.0402 19.7044H73.9136V30.6928H74.0402H74.1668V19.7044H74.0402ZM74.0402 30.6928L74.141 30.7702C75.3022 29.24 76.0755 27.4722 76.4619 25.4693L76.3373 25.4449L76.2132 25.4206C75.8339 27.3875 75.0758 29.1183 73.9399 30.6154L74.0402 30.6928ZM76.3373 25.4449L76.4619 25.4693C76.7191 24.1151 76.8467 22.1917 76.8467 19.7044H76.7201H76.5935C76.5935 22.1864 76.4659 24.0901 76.2132 25.4206L76.3373 25.4449ZM76.7201 19.7044V19.8319H79.9105V19.7044V19.5769H76.7201V19.7044ZM79.9105 19.7044H79.7839V34.7412H79.9105H80.0371V19.7044H79.9105ZM90.2484 33.6916L90.1506 33.6104L90.1501 33.6113L90.2484 33.6916ZM83.0169 20.7754L83.1146 20.8564L83.1151 20.8556L83.0169 20.7754ZM91.163 25.6377V25.7652C91.2329 25.7652 91.2896 25.7081 91.2896 25.6377H91.163ZM87.8875 25.6377H87.7609C87.7609 25.7081 87.8176 25.7652 87.8875 25.7652V25.6377ZM87.6748 22.7032L87.7781 22.6291C87.7766 22.6269 87.7746 22.6248 87.7731 22.6227L87.6748 22.7032ZM85.633 22.6603L85.7226 22.7505L85.7256 22.7471L85.633 22.6603ZM87.6961 31.7424L87.7999 31.816L87.8024 31.8114L87.6961 31.7424ZM87.8875 28.0796V27.9521C87.8176 27.9521 87.7609 28.0092 87.7609 28.0796H87.8875ZM91.163 28.0796H91.2896C91.2896 28.0092 91.2329 27.9521 91.163 27.9521V28.0796ZM91.163 29.8789H91.0364C91.0364 31.671 90.7315 32.9035 90.1506 33.6104L90.2484 33.6916L90.3461 33.7729C90.9852 32.9947 91.2896 31.6853 91.2896 29.8789H91.163ZM90.2484 33.6916L90.1501 33.6113C89.5197 34.3948 88.363 34.8065 86.6326 34.8065V34.934V35.0615C88.3904 35.0615 89.6442 34.6449 90.3466 33.7719L90.2484 33.6916ZM86.6326 34.934V34.8065C84.9179 34.8065 83.7603 34.3883 83.1151 33.5897L83.0169 33.6702L82.9186 33.7503C83.6347 34.6368 84.8875 35.0615 86.6326 35.0615V34.934ZM83.0169 33.6702L83.1156 33.5901C82.5484 32.8829 82.2501 31.6568 82.2501 29.8789H82.1235H81.9969C81.9969 31.6709 82.2947 32.9724 82.9186 33.7503L83.0169 33.6702ZM82.1235 29.8789H82.2501V24.5667H82.1235H81.9969V29.8789H82.1235ZM82.1235 24.5667H82.2501C82.2501 22.7738 82.5484 21.5488 83.1146 20.8564L83.0169 20.7754L82.9191 20.6943C82.2942 21.4585 81.9969 22.761 81.9969 24.5667H82.1235ZM83.0169 20.7754L83.1151 20.8556C83.7456 20.0722 84.9022 19.6605 86.6326 19.6605V19.533V19.4055C84.8749 19.4055 83.621 19.8221 82.9186 20.6951L83.0169 20.7754ZM86.6326 19.533V19.6605C88.6304 19.6605 89.8731 20.2061 90.4352 21.2434L90.5462 21.1823L90.6576 21.1213C90.0281 19.9595 88.6618 19.4055 86.6326 19.4055V19.533ZM90.5462 21.1823L90.4352 21.2434C90.6297 21.6018 90.7816 22.1446 90.8834 22.8814C90.9852 23.6161 91.0364 24.5344 91.0364 25.6377H91.163H91.2896C91.2896 24.5276 91.2379 23.5966 91.1341 22.8462C91.0308 22.0979 90.8738 21.5196 90.6571 21.1211L90.5462 21.1823ZM91.163 25.6377V25.5102H87.8875V25.6377V25.7652H91.163V25.6377ZM87.8875 25.6377H88.0141V23.7742H87.8875H87.7609V25.6377H87.8875ZM87.8875 23.7742H88.0141C88.0141 23.2571 87.9447 22.8641 87.7781 22.6291L87.6748 22.7032L87.572 22.7773C87.689 22.9421 87.7609 23.263 87.7609 23.7742H87.8875ZM87.6748 22.7032L87.7731 22.6227C87.5518 22.3483 87.1542 22.2329 86.6326 22.2329V22.3604V22.4879C87.1324 22.4879 87.4292 22.6011 87.5766 22.7835L87.6748 22.7032ZM86.6326 22.3604V22.2329C86.1409 22.2329 85.7616 22.3335 85.5403 22.5736L85.633 22.6603L85.7256 22.7471C85.873 22.5873 86.1601 22.4879 86.6326 22.4879V22.3604ZM85.633 22.6603L85.5433 22.5702C85.322 22.7933 85.2299 23.1736 85.2299 23.6671H85.3565H85.4831C85.4831 23.1894 85.5752 22.8987 85.7226 22.7505L85.633 22.6603ZM85.3565 23.6671H85.2299V30.7785H85.3565H85.4831V23.6671H85.3565ZM85.3565 30.7785H85.2299C85.2299 31.2734 85.3225 31.6573 85.5403 31.8934L85.633 31.8067L85.7256 31.7199C85.5747 31.5562 85.4831 31.2546 85.4831 30.7785H85.3565ZM85.633 31.8067L85.5403 31.8934C85.7616 32.1335 86.1409 32.234 86.6326 32.234V32.1065V31.979C86.1601 31.979 85.873 31.8796 85.7256 31.7199L85.633 31.8067ZM86.6326 32.1065V32.234C87.18 32.234 87.5923 32.1126 87.7999 31.816L87.6961 31.7424L87.5928 31.6689C87.4601 31.8578 87.1628 31.979 86.6326 31.979V32.1065ZM87.6961 31.7424L87.8024 31.8114C87.8789 31.6915 87.9311 31.532 87.9645 31.3415C87.9979 31.1498 88.0141 30.9187 88.0141 30.65H87.8875H87.7609C87.7609 30.9096 87.7452 31.1248 87.7148 31.2972C87.6844 31.4709 87.6409 31.5934 87.5897 31.6735L87.6961 31.7424ZM87.8875 30.65H88.0141V28.0796H87.8875H87.7609V30.65H87.8875ZM87.8875 28.0796V28.2071H91.163V28.0796V27.9521H87.8875V28.0796ZM91.163 28.0796H91.0364V29.8789H91.163H91.2896V28.0796H91.163ZM101.452 33.6059L101.354 33.5248L101.353 33.5256L101.452 33.6059ZM93.1992 34.7412H93.0726C93.0726 34.8116 93.1294 34.8687 93.1992 34.8687V34.7412ZM93.1992 19.7044V19.5769C93.1294 19.5769 93.0726 19.6339 93.0726 19.7044H93.1992ZM101.494 19.7044H101.621C101.621 19.6339 101.564 19.5769 101.494 19.5769V19.7044ZM101.494 22.5318V22.6593C101.564 22.6593 101.621 22.6022 101.621 22.5318H101.494ZM96.3258 22.5318V22.4043C96.2559 22.4043 96.1992 22.4614 96.1992 22.5318H96.3258ZM96.3258 25.1022H96.1992C96.1992 25.1394 96.2154 25.1747 96.2433 25.1989C96.2716 25.2232 96.3086 25.2339 96.3451 25.2282L96.3258 25.1022ZM101.367 26.3017L101.467 26.2244L101.467 26.2237L101.367 26.3017ZM98.8569 28.3795L98.7419 28.4322L98.7429 28.4343L98.8569 28.3795ZM96.3258 27.7797L96.3051 27.6539C96.2443 27.6642 96.1992 27.7174 96.1992 27.7797H96.3258ZM96.3258 31.9138H96.1992C96.1992 31.9842 96.2559 32.0413 96.3258 32.0413V31.9138ZM98.6442 31.4639L98.5525 31.376L98.5505 31.3784L98.6442 31.4639ZM102.26 29.9217H102.133C102.133 30.8157 102.066 31.5626 101.934 32.1647C101.802 32.7677 101.606 33.2175 101.354 33.5248L101.452 33.6059L101.549 33.6871C101.836 33.3375 102.045 32.8448 102.181 32.2197C102.319 31.5937 102.387 30.827 102.387 29.9217H102.26ZM101.452 33.6059L101.353 33.5256C100.782 34.2356 99.656 34.6137 97.921 34.6137V34.7412V34.8687C99.6747 34.8687 100.903 34.4899 101.55 33.6863L101.452 33.6059ZM97.921 34.7412V34.6137H93.1992V34.7412V34.8687H97.921V34.7412ZM93.1992 34.7412H93.3258V19.7044H93.1992H93.0726V34.7412H93.1992ZM93.1992 19.7044V19.8319H101.494V19.7044V19.5769H93.1992V19.7044ZM101.494 19.7044H101.368V22.5318H101.494H101.621V19.7044H101.494ZM101.494 22.5318V22.4043H96.3258V22.5318V22.6593H101.494V22.5318ZM96.3258 22.5318H96.1992V25.1022H96.3258H96.4524V22.5318H96.3258ZM96.3258 25.1022L96.3451 25.2282C96.892 25.1435 97.4455 25.1012 98.0061 25.1012V24.9737V24.8462C97.4328 24.8462 96.8662 24.8895 96.3066 24.9762L96.3258 25.1022ZM98.0061 24.9737V25.1012C99.5435 25.1012 100.619 25.5368 101.267 26.3798L101.367 26.3017L101.467 26.2237C100.754 25.2958 99.5886 24.8462 98.0061 24.8462V24.9737ZM101.367 26.3017L101.266 26.3791C101.837 27.132 102.133 28.3052 102.133 29.9217H102.26H102.387C102.387 28.2824 102.088 27.0423 101.467 26.2244L101.367 26.3017ZM99.0695 29.9217H99.1961C99.1961 29.1918 99.1263 28.6524 98.9713 28.3246L98.8569 28.3795L98.7429 28.4343C98.8715 28.7063 98.9429 29.195 98.9429 29.9217H99.0695ZM98.8569 28.3795L98.9723 28.3267C98.8553 28.0683 98.6801 27.8701 98.4457 27.738C98.2127 27.6069 97.9291 27.5451 97.602 27.5451V27.6726V27.8001C97.8987 27.8001 98.1367 27.8562 98.3221 27.9606C98.5059 28.0641 98.6457 28.2195 98.7419 28.4322L98.8569 28.3795ZM97.602 27.6726V27.5451C97.1695 27.5451 96.7375 27.5814 96.3051 27.6539L96.3258 27.7797L96.3466 27.9055C96.7654 27.8352 97.1837 27.8001 97.602 27.8001V27.6726ZM96.3258 27.7797H96.1992V31.9138H96.3258H96.4524V27.7797H96.3258ZM96.3258 31.9138V32.0413H97.1553V31.9138V31.7863H96.3258V31.9138ZM97.1553 31.9138V32.0413C97.8876 32.0413 98.4315 31.891 98.7384 31.5495L98.6442 31.4639L98.5505 31.3784C98.3185 31.6367 97.8694 31.7863 97.1553 31.7863V31.9138ZM98.6442 31.4639L98.7358 31.5519C99.0538 31.2158 99.1961 30.66 99.1961 29.9217H99.0695H98.9429C98.9429 30.64 98.8022 31.1123 98.5525 31.376L98.6442 31.4639ZM115.535 22.5746V22.7021C115.605 22.7021 115.662 22.6451 115.662 22.5746H115.535ZM112.153 22.5746V22.4471C112.083 22.4471 112.027 22.5042 112.027 22.5746H112.153ZM112.153 34.7412V34.8687C112.223 34.8687 112.28 34.8116 112.28 34.7412H112.153ZM109.027 34.7412H108.9C108.9 34.8116 108.957 34.8687 109.027 34.8687V34.7412ZM109.027 19.7044V19.5769C108.957 19.5769 108.9 19.6339 108.9 19.7044H109.027ZM115.535 19.7044H115.662C115.662 19.6339 115.605 19.5769 115.535 19.5769V19.7044ZM115.535 22.5746V22.4471H112.153V22.5746V22.7021H115.535V22.5746ZM112.153 22.5746H112.027V34.7412H112.153H112.28V22.5746H112.153ZM112.153 34.7412V34.6137H109.027V34.7412V34.8687H112.153V34.7412ZM109.027 34.7412H109.153V19.7044H109.027H108.9V34.7412H109.027ZM109.027 19.7044V19.8319H115.535V19.7044V19.5769H109.027V19.7044ZM115.535 19.7044H115.408V22.5746H115.535H115.662V19.7044H115.535ZM121.228 34.5484L121.156 34.6537L121.159 34.6557L121.228 34.5484ZM120.185 33.5417L120.281 33.4573C120.246 33.4175 120.19 33.4037 120.141 33.4224C120.092 33.4412 120.059 33.4886 120.059 33.5417H120.185ZM120.185 36.669V36.7965C120.255 36.7965 120.312 36.7394 120.312 36.669H120.185ZM117.229 36.669H117.102C117.102 36.7394 117.159 36.7965 117.229 36.7965V36.669ZM117.229 21.6322V21.5047C117.159 21.5047 117.102 21.5617 117.102 21.6322H117.229ZM119.973 21.6322H120.099C120.099 21.5617 120.043 21.5047 119.973 21.5047V21.6322ZM119.973 22.8959H119.846C119.846 22.9469 119.876 22.9929 119.923 23.0131C119.969 23.0332 120.023 23.0235 120.06 22.9885L119.973 22.8959ZM121.228 21.8464L121.166 21.7351L121.161 21.7379L121.228 21.8464ZM125.035 22.746L124.92 22.7999L124.921 22.8019L125.035 22.746ZM122.248 24.224L122.141 24.2905C122.142 24.2925 122.143 24.2946 122.145 24.2966L122.248 24.224ZM120.398 24.1597L120.501 24.2339L120.503 24.2305L120.398 24.1597ZM122.27 32.1922L122.374 32.2658C122.375 32.2636 122.377 32.2613 122.378 32.259L122.27 32.1922ZM125.46 30.5H125.334C125.334 31.2613 125.306 31.8953 125.249 32.4031C125.193 32.9129 125.11 33.2871 125.004 33.5339L125.12 33.5845L125.236 33.6351C125.357 33.3535 125.444 32.9496 125.501 32.4312C125.558 31.9108 125.587 31.2667 125.587 30.5H125.46ZM125.12 33.5845L125.004 33.5339C124.823 33.9578 124.538 34.2732 124.146 34.4842C123.751 34.6963 123.242 34.8065 122.61 34.8065V34.934V35.0615C123.269 35.0615 123.823 34.9468 124.265 34.7091C124.71 34.4702 125.034 34.1108 125.236 33.6351L125.12 33.5845ZM122.61 34.934V34.8065C122.107 34.8065 121.671 34.6835 121.296 34.4412L121.228 34.5484L121.159 34.6557C121.579 34.9274 122.064 35.0615 122.61 35.0615V34.934ZM121.228 34.5484L121.299 34.4432C121.043 34.2668 120.704 33.941 120.281 33.4573L120.185 33.5417L120.091 33.626C120.518 34.1134 120.874 34.4588 121.156 34.6537L121.228 34.5484ZM120.185 33.5417H120.059V36.669H120.185H120.312V33.5417H120.185ZM120.185 36.669V36.5415H117.229V36.669V36.7965H120.185V36.669ZM117.229 36.669H117.356V21.6322H117.229H117.102V36.669H117.229ZM117.229 21.6322V21.7597H119.973V21.6322V21.5047H117.229V21.6322ZM119.973 21.6322H119.846V22.8959H119.973H120.099V21.6322H119.973ZM119.973 22.8959L120.06 22.9885C120.598 22.4753 121.008 22.1331 121.294 21.9548L121.228 21.8464L121.161 21.7379C120.852 21.9309 120.425 22.2884 119.886 22.8034L119.973 22.8959ZM121.228 21.8464L121.29 21.9575C121.722 21.7126 122.225 21.5883 122.801 21.5883V21.4608V21.3333C122.188 21.3333 121.641 21.4659 121.166 21.7351L121.228 21.8464ZM122.801 21.4608V21.5883C123.332 21.5883 123.768 21.6922 124.116 21.8928C124.463 22.0927 124.732 22.393 124.92 22.7999L125.035 22.746L125.15 22.6921C124.941 22.2422 124.639 21.8999 124.242 21.6714C123.846 21.4436 123.364 21.3333 122.801 21.3333V21.4608ZM125.035 22.746L124.921 22.8019C125.192 23.3604 125.334 24.2503 125.334 25.4878H125.46H125.587C125.587 24.2405 125.445 23.3025 125.149 22.6901L125.035 22.746ZM125.46 25.4878H125.334V30.5H125.46H125.587V25.4878H125.46ZM122.44 31.1855H122.566V25.2093H122.44H122.313V31.1855H122.44ZM122.44 25.2093H122.566C122.566 24.735 122.504 24.3716 122.353 24.1514L122.248 24.224L122.145 24.2966C122.248 24.4477 122.313 24.7411 122.313 25.2093H122.44ZM122.248 24.224L122.357 24.1575C122.167 23.8444 121.799 23.7109 121.313 23.7109V23.8384V23.9659C121.763 23.9659 122.019 24.0894 122.141 24.2905L122.248 24.224ZM121.313 23.8384V23.7109C120.837 23.7109 120.472 23.8181 120.293 24.089L120.398 24.1597L120.503 24.2305C120.608 24.073 120.853 23.9659 121.313 23.9659V23.8384ZM120.398 24.1597L120.295 24.0856C120.129 24.3203 120.059 24.7056 120.059 25.2093H120.185H120.312C120.312 24.7134 120.384 24.3991 120.501 24.2339L120.398 24.1597ZM120.185 25.2093H120.059V31.1855H120.185H120.312V25.2093H120.185ZM120.185 31.1855H120.059C120.059 31.4402 120.075 31.6592 120.109 31.8409C120.142 32.0212 120.195 32.1728 120.273 32.2862L120.377 32.2136L120.481 32.1414C120.431 32.0692 120.388 31.9562 120.358 31.7939C120.328 31.6328 120.312 31.4306 120.312 31.1855H120.185ZM120.377 32.2136L120.272 32.2859C120.465 32.5676 120.833 32.6839 121.313 32.6839V32.5564V32.4289C120.857 32.4289 120.601 32.3167 120.481 32.1414L120.377 32.2136ZM121.313 32.5564V32.6839C121.797 32.6839 122.168 32.5586 122.374 32.2658L122.27 32.1922L122.166 32.1187C122.031 32.3114 121.764 32.4289 121.313 32.4289V32.5564ZM122.27 32.1922L122.378 32.259C122.511 32.0402 122.566 31.6721 122.566 31.1855H122.44H122.313C122.313 31.6699 122.255 31.9729 122.162 32.1254L122.27 32.1922ZM132.34 36.669V36.7965C132.38 36.7965 132.417 36.7775 132.441 36.7453L132.34 36.669ZM127.278 36.669H127.151C127.151 36.7394 127.208 36.7965 127.278 36.7965V36.669ZM127.278 34.7412V34.6137C127.208 34.6137 127.151 34.6708 127.151 34.7412H127.278ZM129.532 34.7412V34.8687C129.579 34.8687 129.622 34.8429 129.644 34.8015C129.666 34.7602 129.663 34.7099 129.638 34.6708L129.532 34.7412ZM127.278 21.6322V21.5047C127.208 21.5047 127.151 21.5617 127.151 21.6322H127.278ZM130.234 21.6322H130.361C130.361 21.5617 130.304 21.5047 130.234 21.5047V21.6322ZM130.298 27.9296L130.424 27.9221V27.9208L130.298 27.9296ZM131.383 33.9701L131.261 34.0061C131.277 34.0605 131.327 34.0977 131.383 34.0976C131.439 34.0974 131.488 34.0599 131.504 34.0055L131.383 33.9701ZM132.446 27.9296L132.32 27.9208V27.9222L132.446 27.9296ZM132.51 21.6322V21.5047C132.44 21.5047 132.383 21.5617 132.383 21.6322H132.51ZM135.466 21.6322H135.593C135.593 21.5617 135.536 21.5047 135.466 21.5047V21.6322ZM135.466 26.366H135.34C135.34 28.4132 135.114 30.2143 134.664 31.7711L134.786 31.8067L134.907 31.8424C135.365 30.2575 135.593 28.4314 135.593 26.366H135.466ZM134.786 31.8067L134.664 31.7711C134.172 33.469 133.364 35.0761 132.238 36.5927L132.34 36.669L132.441 36.7453C133.584 35.206 134.406 33.5716 134.907 31.8424L134.786 31.8067ZM132.34 36.669V36.5415H127.278V36.669V36.7965H132.34V36.669ZM127.278 36.669H127.404V34.7412H127.278H127.151V36.669H127.278ZM127.278 34.7412V34.8687H129.532V34.7412V34.6137H127.278V34.7412ZM129.532 34.7412L129.638 34.6708C128.151 32.4108 127.404 29.6448 127.404 26.366H127.278H127.151C127.151 29.6846 127.907 32.502 129.427 34.8116L129.532 34.7412ZM127.278 26.366H127.404V21.6322H127.278H127.151V26.366H127.278ZM127.278 21.6322V21.7597H130.234V21.6322V21.5047H127.278V21.6322ZM130.234 21.6322H130.107C130.107 25.2137 130.129 27.3188 130.172 27.9385L130.298 27.9296L130.424 27.9208C130.382 27.3124 130.361 25.2191 130.361 21.6322H130.234ZM130.298 27.9296L130.172 27.9371C130.286 29.8899 130.649 31.913 131.261 34.0061L131.383 33.9701L131.504 33.9341C130.897 31.8574 130.537 29.8535 130.424 27.9221L130.298 27.9296ZM131.383 33.9701L131.504 34.0055C132.102 31.9267 132.458 29.9038 132.573 27.9371L132.446 27.9296L132.32 27.9222C132.207 29.8682 131.854 31.8722 131.261 33.9346L131.383 33.9701ZM132.446 27.9296L132.573 27.9385C132.615 27.3188 132.636 25.2137 132.636 21.6322H132.51H132.383C132.383 25.2191 132.362 27.3124 132.32 27.9208L132.446 27.9296ZM132.51 21.6322V21.7597H135.466V21.6322V21.5047H132.51V21.6322ZM135.466 21.6322H135.34V26.366H135.466H135.593V21.6322H135.466ZM145.711 34.7412V34.8687C145.781 34.8687 145.838 34.8116 145.838 34.7412H145.711ZM142.776 34.7412H142.649C142.649 34.8116 142.706 34.8687 142.776 34.8687V34.7412ZM142.776 24.1383H142.902C142.902 24.0679 142.846 24.0108 142.776 24.0108V24.1383ZM140.479 24.1383V24.0108C140.409 24.0108 140.352 24.0679 140.352 24.1383H140.479ZM140.479 34.7412V34.8687C140.549 34.8687 140.605 34.8116 140.605 34.7412H140.479ZM137.544 34.7412H137.417C137.417 34.8116 137.474 34.8687 137.544 34.8687V34.7412ZM137.544 21.6322V21.5047C137.474 21.5047 137.417 21.5617 137.417 21.6322H137.544ZM145.711 21.6322H145.838C145.838 21.5617 145.781 21.5047 145.711 21.5047V21.6322ZM145.711 34.7412V34.6137H142.776V34.7412V34.8687H145.711V34.7412ZM142.776 34.7412H142.902V24.1383H142.776H142.649V34.7412H142.776ZM142.776 24.1383V24.0108H140.479V24.1383V24.2658H142.776V24.1383ZM140.479 24.1383H140.352V34.7412H140.479H140.605V24.1383H140.479ZM140.479 34.7412V34.6137H137.544V34.7412V34.8687H140.479V34.7412ZM137.544 34.7412H137.67V21.6322H137.544H137.417V34.7412H137.544ZM137.544 21.6322V21.7597H145.711V21.6322V21.5047H137.544V21.6322ZM145.711 21.6322H145.584V34.7412H145.711H145.838V21.6322H145.711ZM156.179 34.7412V34.8687C156.249 34.8687 156.306 34.8116 156.306 34.7412H156.179ZM153.244 34.7412H153.118C153.118 34.8116 153.174 34.8687 153.244 34.8687V34.7412ZM153.244 24.1383H153.371C153.371 24.0679 153.314 24.0108 153.244 24.0108V24.1383ZM150.947 24.1383V24.0108C150.877 24.0108 150.821 24.0679 150.821 24.1383H150.947ZM150.947 34.7412V34.8687C151.017 34.8687 151.074 34.8116 151.074 34.7412H150.947ZM148.012 34.7412H147.885C147.885 34.8116 147.942 34.8687 148.012 34.8687V34.7412ZM148.012 21.6322V21.5047C147.942 21.5047 147.885 21.5617 147.885 21.6322H148.012ZM156.179 21.6322H156.306C156.306 21.5617 156.249 21.5047 156.179 21.5047V21.6322ZM156.179 34.7412V34.6137H153.244V34.7412V34.8687H156.179V34.7412ZM153.244 34.7412H153.371V24.1383H153.244H153.118V34.7412H153.244ZM153.244 24.1383V24.0108H150.947V24.1383V24.2658H153.244V24.1383ZM150.947 24.1383H150.821V34.7412H150.947H151.074V24.1383H150.947ZM150.947 34.7412V34.6137H148.012V34.7412V34.8687H150.947V34.7412ZM148.012 34.7412H148.139V21.6322H148.012H147.885V34.7412H148.012ZM148.012 21.6322V21.7597H156.179V21.6322V21.5047H148.012V21.6322ZM156.179 21.6322H156.053V34.7412H156.179H156.306V21.6322H156.179Z" fill="white"/>
<path d="M69.6375 40.6062H157.753" stroke="white"/>
<path d="M70.7936 49.0212V44.1976H71.3724V46.3472H73.9247V44.1976H74.5036V49.0212H73.9247V46.8652H71.3724V49.0212H70.7936ZM78.1133 49.1053C77.8859 49.1053 77.6793 49.0622 77.4929 48.9759C77.306 48.8874 77.1582 48.7601 77.0493 48.5939C76.9399 48.4277 76.8852 48.227 76.8852 47.9917C76.8852 47.7845 76.9257 47.6173 77.0073 47.49C77.0888 47.3604 77.1972 47.259 77.3319 47.1857C77.4691 47.1101 77.619 47.054 77.7821 47.0173C77.9472 46.9806 78.1133 46.9515 78.2804 46.9299C78.4986 46.9018 78.6759 46.8803 78.8106 46.8652C78.9478 46.85 79.0476 46.8242 79.1094 46.7874C79.1737 46.7508 79.2061 46.6882 79.2061 46.5997V46.5803C79.2061 46.3494 79.1428 46.1702 79.0162 46.0429C78.8921 45.9134 78.7022 45.8486 78.4475 45.8486C78.1862 45.8486 77.9801 45.9069 77.8302 46.0235C77.6803 46.1378 77.5755 46.2609 77.5152 46.3925L76.988 46.2047C77.0822 45.9846 77.2078 45.813 77.3643 45.69C77.5228 45.567 77.694 45.4807 77.8783 45.431C78.0652 45.3814 78.248 45.3565 78.4283 45.3565C78.5437 45.3565 78.6769 45.3706 78.8268 45.3987C78.9767 45.4245 79.1225 45.4807 79.2638 45.567C79.4076 45.6512 79.5251 45.7796 79.6173 45.9522C79.712 46.1227 79.7591 46.3515 79.7591 46.6385V49.0212H79.2061V48.5291H79.1803C79.1438 48.6068 79.0815 48.691 78.9939 48.7816C78.9058 48.8701 78.7893 48.9467 78.6435 49.0115C78.5002 49.0741 78.3229 49.1053 78.1133 49.1053ZM78.1968 48.6068C78.4151 48.6068 78.5994 48.5637 78.7498 48.4773C78.8997 48.391 79.0132 48.2799 79.0901 48.1439C79.1676 48.0057 79.2061 47.8622 79.2061 47.7133V47.2018C79.1823 47.2299 79.1312 47.2558 79.0516 47.2795C78.9747 47.3011 78.8845 47.3205 78.7817 47.3378C78.681 47.3551 78.5822 47.3702 78.486 47.3831C78.3898 47.3939 78.3123 47.4026 78.2546 47.409C78.1107 47.4284 77.977 47.4597 77.853 47.5029C77.7284 47.5439 77.6276 47.6054 77.5506 47.6874C77.4757 47.7695 77.4382 47.8817 77.4382 48.0241C77.4382 48.2162 77.5086 48.3619 77.6504 48.4612C77.7937 48.5583 77.976 48.6068 78.1968 48.6068ZM81.8577 50.0571V48.5032H82.1534C82.2263 48.4255 82.2896 48.3424 82.3433 48.254C82.399 48.1655 82.4461 48.0597 82.4846 47.9367C82.5231 47.8115 82.5565 47.6605 82.5844 47.4835C82.6142 47.3065 82.6401 47.0918 82.6613 46.8393L82.7839 45.4019H85.0658V48.5032H85.6188V50.0571H85.0658V49.0212H82.4107V50.0571H81.8577ZM82.7839 48.5032H84.5133V45.9198H83.2979L83.2017 46.8393C83.1652 47.2169 83.1181 47.5471 83.0604 47.8299C83.0022 48.1126 82.91 48.337 82.7839 48.5032ZM89.3252 49.0989C88.9803 49.0989 88.681 49.0212 88.4283 48.8658C88.1777 48.7104 87.9847 48.4935 87.8495 48.2151C87.7148 47.9345 87.6469 47.6097 87.6469 47.2407C87.6469 46.8695 87.7138 46.5425 87.8465 46.2597C87.9791 45.9771 88.1655 45.7558 88.4055 45.5961C88.6481 45.4364 88.9307 45.3565 89.2543 45.3565C89.4406 45.3565 89.626 45.3879 89.8103 45.4504C89.9947 45.5131 90.1618 45.6144 90.3122 45.7547C90.4641 45.895 90.5851 46.0806 90.6753 46.3116C90.7654 46.5425 90.81 46.8263 90.81 47.163V47.4026H88.0394V46.9234H90.5112L90.2575 47.1047C90.2575 46.863 90.22 46.6483 90.1446 46.4605C90.0696 46.2727 89.9572 46.1249 89.8073 46.017C89.6594 45.9091 89.4751 45.8551 89.2543 45.8551C89.0335 45.8551 88.8441 45.9101 88.6856 46.0202C88.5291 46.1281 88.4091 46.2695 88.3255 46.4443C88.242 46.6191 88.1999 46.8069 88.1999 47.0076V47.3248C88.1999 47.599 88.247 47.831 88.3412 48.0209C88.4359 48.2108 88.5676 48.3554 88.7367 48.4547C88.9064 48.5518 89.1024 48.6003 89.3252 48.6003C89.4685 48.6003 89.5997 48.5798 89.7171 48.5388C89.8351 48.4957 89.9369 48.432 90.0225 48.3478C90.1086 48.2615 90.1739 48.1558 90.2185 48.0306L90.7523 48.186C90.6965 48.3673 90.6024 48.527 90.4697 48.6651C90.3385 48.8011 90.176 48.9079 89.981 48.9856C89.786 49.0611 89.5673 49.0989 89.3252 49.0989ZM92.787 49.0212L94.2465 47.1824L92.8063 45.4019H93.4555L94.6577 46.9493H94.9534V45.4019H95.5064V46.9493H95.7956L96.9917 45.4019H97.6475L96.2139 47.1824L97.6668 49.0212H97.0044L95.7895 47.4673H95.5064V49.0212H94.9534V47.4673H94.6709L93.4494 49.0212H92.787ZM102.324 46.9558V47.4738H100.344V46.9558H102.324ZM100.473 45.4019V49.0212H99.9264V45.4019H100.473ZM102.749 45.4019V49.0212H102.196V45.4019H102.749ZM105.709 46.7163H106.738C107.158 46.7141 107.479 46.8209 107.702 47.0367C107.925 47.2526 108.037 47.5256 108.037 47.8557C108.037 48.0716 107.986 48.268 107.885 48.4449C107.787 48.6198 107.641 48.7601 107.448 48.8658C107.255 48.9694 107.019 49.0212 106.738 49.0212H105.234V45.4019H105.78V48.5032H106.738C106.954 48.5032 107.132 48.446 107.271 48.3316C107.413 48.2151 107.484 48.0651 107.484 47.8816C107.484 47.6896 107.413 47.5331 107.271 47.4122C107.132 47.2914 106.954 47.2321 106.738 47.2342H105.709V46.7163ZM108.609 49.0212V45.4019H109.155V49.0212H108.609ZM113.144 49.0989C112.799 49.0989 112.5 49.0212 112.247 48.8658C111.997 48.7104 111.804 48.4935 111.669 48.2151C111.534 47.9345 111.466 47.6097 111.466 47.2407C111.466 46.8695 111.533 46.5425 111.665 46.2597C111.798 45.9771 111.985 45.7558 112.225 45.5961C112.467 45.4364 112.75 45.3565 113.073 45.3565C113.26 45.3565 113.446 45.3879 113.629 45.4504C113.814 45.5131 113.981 45.6144 114.131 45.7547C114.283 45.895 114.404 46.0806 114.494 46.3116C114.584 46.5425 114.629 46.8263 114.629 47.163V47.4026H111.858V46.9234H114.33L114.076 47.1047C114.076 46.863 114.039 46.6483 113.964 46.4605C113.889 46.2727 113.776 46.1249 113.626 46.017C113.478 45.9091 113.294 45.8551 113.073 45.8551C112.852 45.8551 112.663 45.9101 112.505 46.0202C112.348 46.1281 112.228 46.2695 112.145 46.4443C112.061 46.6191 112.019 46.8069 112.019 47.0076V47.3248C112.019 47.599 112.066 47.831 112.161 48.0209C112.255 48.2108 112.387 48.3554 112.556 48.4547C112.725 48.5518 112.921 48.6003 113.144 48.6003C113.288 48.6003 113.419 48.5798 113.536 48.5388C113.654 48.4957 113.756 48.432 113.842 48.3478C113.928 48.2615 113.993 48.1558 114.038 48.0306L114.571 48.186C114.516 48.3673 114.421 48.527 114.289 48.6651C114.158 48.8011 113.995 48.9079 113.8 48.9856C113.605 49.0611 113.386 49.0989 113.144 49.0989ZM120.319 49.0212V44.1976H121.939C122.314 44.1976 122.62 44.2656 122.858 44.4016C123.098 44.5375 123.276 44.721 123.392 44.9519C123.507 45.1828 123.566 45.4407 123.566 45.7256C123.566 46.0083 123.507 46.2662 123.392 46.4993C123.278 46.7324 123.101 46.918 122.861 47.0562C122.624 47.1921 122.318 47.2601 121.945 47.2601H120.788V46.7421H121.926C122.183 46.7421 122.39 46.6979 122.546 46.6094C122.703 46.5209 122.817 46.4 122.887 46.2468C122.958 46.0914 122.993 45.9177 122.993 45.7256C122.993 45.5314 122.958 45.3587 122.887 45.2077C122.817 45.0544 122.702 44.9346 122.543 44.8483C122.387 44.7598 122.179 44.7156 121.92 44.7156H120.897V49.0212H120.319ZM127.362 49.0989C127.017 49.0989 126.718 49.0212 126.465 48.8658C126.214 48.7104 126.021 48.4935 125.886 48.2151C125.751 47.9345 125.683 47.6097 125.683 47.2407C125.683 46.8695 125.75 46.5425 125.883 46.2597C126.016 45.9771 126.202 45.7558 126.442 45.5961C126.685 45.4364 126.967 45.3565 127.291 45.3565C127.477 45.3565 127.662 45.3879 127.847 45.4504C128.031 45.5131 128.198 45.6144 128.349 45.7547C128.501 45.895 128.622 46.0806 128.712 46.3116C128.802 46.5425 128.846 46.8263 128.846 47.163V47.4026H126.076V46.9234H128.548L128.294 47.1047C128.294 46.863 128.256 46.6483 128.182 46.4605C128.106 46.2727 127.994 46.1249 127.844 46.017C127.696 45.9091 127.512 45.8551 127.291 45.8551C127.07 45.8551 126.881 45.9101 126.722 46.0202C126.566 46.1281 126.446 46.2695 126.362 46.4443C126.278 46.6191 126.236 46.8069 126.236 47.0076V47.3248C126.236 47.599 126.284 47.831 126.378 48.0209C126.472 48.2108 126.604 48.3554 126.773 48.4547C126.943 48.5518 127.139 48.6003 127.362 48.6003C127.505 48.6003 127.636 48.5798 127.754 48.5388C127.872 48.4957 127.973 48.432 128.059 48.3478C128.145 48.2615 128.21 48.1558 128.255 48.0306L128.789 48.186C128.733 48.3673 128.639 48.527 128.506 48.6651C128.375 48.8011 128.212 48.9079 128.017 48.9856C127.822 49.0611 127.604 49.0989 127.362 49.0989ZM131.145 45.4019H131.691V48.5032H133.048V45.4019H133.601V48.5032H134.957V45.4019H135.51V49.0212H131.145V45.4019ZM139.499 49.0989C139.154 49.0989 138.855 49.0212 138.602 48.8658C138.352 48.7104 138.159 48.4935 138.024 48.2151C137.889 47.9345 137.822 47.6097 137.822 47.2407C137.822 46.8695 137.888 46.5425 138.021 46.2597C138.154 45.9771 138.34 45.7558 138.58 45.5961C138.822 45.4364 139.105 45.3565 139.428 45.3565C139.615 45.3565 139.801 45.3879 139.985 45.4504C140.169 45.5131 140.336 45.6144 140.486 45.7547C140.638 45.895 140.759 46.0806 140.849 46.3116C140.94 46.5425 140.985 46.8263 140.985 47.163V47.4026H138.214V46.9234H140.685L140.432 47.1047C140.432 46.863 140.394 46.6483 140.319 46.4605C140.244 46.2727 140.131 46.1249 139.981 46.017C139.834 45.9091 139.649 45.8551 139.428 45.8551C139.208 45.8551 139.018 45.9101 138.86 46.0202C138.703 46.1281 138.583 46.2695 138.5 46.4443C138.416 46.6191 138.374 46.8069 138.374 47.0076V47.3248C138.374 47.599 138.422 47.831 138.516 48.0209C138.61 48.2108 138.742 48.3554 138.911 48.4547C139.08 48.5518 139.276 48.6003 139.499 48.6003C139.643 48.6003 139.774 48.5798 139.892 48.5388C140.009 48.4957 140.111 48.432 140.197 48.3478C140.283 48.2615 140.348 48.1558 140.393 48.0306L140.926 48.186C140.871 48.3673 140.776 48.527 140.644 48.6651C140.513 48.8011 140.35 48.9079 140.155 48.9856C139.96 49.0611 139.741 49.0989 139.499 49.0989ZM145.681 46.9558V47.4738H143.7V46.9558H145.681ZM143.829 45.4019V49.0212H143.283V45.4019H143.829ZM146.105 45.4019V49.0212H145.552V45.4019H146.105ZM149.136 48.1989L150.866 45.4019H151.502V49.0212H150.956V46.2241L149.233 49.0212H148.59V45.4019H149.136V48.1989ZM156.147 49.0212V45.9134H155.189C154.975 45.9134 154.806 45.9641 154.681 46.0655C154.559 46.1648 154.499 46.3019 154.501 46.4767C154.499 46.6493 154.554 46.7853 154.665 46.8845C154.777 46.9838 154.93 47.0335 155.125 47.0335H156.282V47.5515H155.125C154.88 47.5515 154.67 47.5083 154.495 47.422C154.319 47.3356 154.184 47.2126 154.089 47.0529C153.995 46.891 153.948 46.699 153.948 46.4767C153.948 46.2544 153.997 46.0634 154.096 45.9037C154.197 45.744 154.339 45.6209 154.523 45.5346C154.71 45.4461 154.932 45.4019 155.189 45.4019H156.668V49.0212H156.147ZM153.749 49.0212L154.771 47.2213H155.369L154.347 49.0212H153.749Z" fill="white"/>
</g>
<defs>
<filter id="filter0_f_132_268" x="0.864102" y="0.900001" width="48.5186" height="45.6798" filterUnits="userSpaceOnUse" color-interpolation-filters="sRGB">
<feFlood flood-opacity="0" result="BackgroundImageFix"/>
<feBlend mode="normal" in="SourceGraphic" in2="BackgroundImageFix" result="shape"/>
<feGaussianBlur stdDeviation="2.1" result="effect1_foregroundBlur_132_268"/>
</filter>
<clipPath id="clip0_132_268">
<rect width="158" height="51" fill="white"/>
</clipPath>
</defs>
</svg>
