<svg width="230" height="74" viewBox="0 0 230 74" fill="none" xmlns="http://www.w3.org/2000/svg">
<g filter="url(#filter0_f_132_1075)">
<path d="M7.3718 57.7708V61.4922H44.4768V52.1406L7.3718 54.0614V57.7708Z" fill="#AFAFAF"/>
<path d="M65.7723 61.4922V57.7708V54.0614L44.4766 52.1406V61.4922H65.7723Z" fill="#AFAFAF"/>
<path d="M65.7723 50.4239V46.7025V42.9812L44.4766 38.5034V48.5032L65.7723 50.4239Z" fill="#AFAFAF"/>
<path d="M7.3718 46.7025V50.4239L44.4768 48.5032V38.5034L7.3718 42.9812V46.7025Z" fill="#AFAFAF"/>
<path d="M7.3718 35.6344V39.3438L44.4768 34.8662V25.5146L7.3718 31.9131V35.6344Z" fill="#AFAFAF"/>
<path d="M65.7723 39.3438V35.6344V31.9131L44.4766 25.5146V34.8662L65.7723 39.3438Z" fill="#AFAFAF"/>
<path d="M7.3718 20.845V24.5543V28.2757L44.4768 21.8773V7.3999L7.3718 20.845Z" fill="#AFAFAF"/>
<path d="M44.4766 7.3999V21.8773L65.7723 28.2757V24.5543V20.845L44.4766 7.3999Z" fill="#AFAFAF"/>
</g>
<path d="M23.12 69.2651V73.349H65.8116V63.0864L23.12 65.1943V69.2651Z" fill="#0000BF"/>
<path d="M90.3134 73.349V69.2651V65.1943L65.8116 63.0864V73.349H90.3134Z" fill="black"/>
<path d="M90.3134 61.2023V57.1184V53.0344L65.8116 48.1206V59.0945L90.3134 61.2023Z" fill="black"/>
<path d="M23.12 57.1184V61.2023L65.8116 59.0945V48.1206L23.12 53.0344V57.1184Z" fill="#0000BF"/>
<path d="M23.12 44.9723V49.0431L65.8116 44.1292V33.8667L23.12 40.8884V44.9723Z" fill="#0000BF"/>
<path d="M90.3134 49.0431V44.9723V40.8884L65.8116 33.8667V44.1292L90.3134 49.0431Z" fill="black"/>
<path d="M23.12 28.7417V32.8124V36.8963L65.8116 29.8746V13.9868L23.12 28.7417Z" fill="#0000BF"/>
<path d="M65.8116 13.9868V29.8746L90.3134 36.8963V32.8124V28.7417L65.8116 13.9868Z" fill="black"/>
<path d="M116.325 50.4086H111.681V43.0737C110.629 45.7466 109.225 48.1916 107.47 50.4086H103.136V28.5904H107.78V44.5345C109.452 42.3382 110.567 39.8 111.124 36.9199C111.495 34.9722 111.681 32.1957 111.681 28.5904H116.325V50.4086ZM132.706 43.3534C132.706 45.9642 132.262 47.8082 131.374 48.8857C130.404 50.0874 128.65 50.6883 126.111 50.6883C123.593 50.6883 121.838 50.0771 120.847 48.8546C119.98 47.7772 119.547 45.9434 119.547 43.3534V35.6456C119.547 33.0349 119.98 31.2012 120.847 30.1444C121.817 28.9427 123.572 28.3418 126.111 28.3418C129.042 28.3418 130.941 29.1395 131.808 30.735C132.406 31.8331 132.706 33.988 132.706 37.1996H127.938V34.4956C127.938 33.7497 127.834 33.2317 127.628 32.9416C127.36 32.6101 126.854 32.4444 126.111 32.4444C125.409 32.4444 124.924 32.5894 124.656 32.8795C124.387 33.1488 124.253 33.6358 124.253 34.3402V44.6588C124.253 45.3633 124.387 45.8606 124.656 46.1506C124.924 46.4407 125.409 46.5858 126.111 46.5858C126.895 46.5858 127.411 46.4096 127.659 46.0574C127.845 45.7673 127.938 45.239 127.938 44.4723V40.7427H132.706V43.3534ZM148.859 43.4156C148.859 46.0263 148.467 47.8082 147.683 48.7614C146.795 49.8595 145.082 50.4086 142.543 50.4086H135.67V28.5904H147.745V32.693H140.221V36.4226C141.026 36.2983 141.841 36.2361 142.667 36.2361C144.938 36.2361 146.568 36.8784 147.559 38.1631C148.426 39.3027 148.859 41.0535 148.859 43.4156ZM144.215 43.4156C144.215 42.3589 144.112 41.613 143.906 41.1778C143.596 40.4941 142.987 40.1522 142.079 40.1522C141.46 40.1522 140.84 40.204 140.221 40.3076V46.306H141.429C142.481 46.306 143.204 46.0885 143.596 45.6534C144.009 45.2182 144.215 44.4723 144.215 43.4156ZM168.184 32.7552H163.261V50.4086H158.71V28.5904H168.184V32.7552ZM182.632 44.2548C182.632 46.4718 182.467 47.9636 182.136 48.7303C181.579 50.0356 180.361 50.6883 178.483 50.6883C177.719 50.6883 177.048 50.5018 176.47 50.1289C176.078 49.8595 175.573 49.3726 174.953 48.6681V53.2058H170.65V31.3876H174.644V33.2214C175.428 32.4754 176.037 31.9678 176.47 31.6984C177.131 31.3255 177.895 31.139 178.762 31.139C180.351 31.139 181.435 31.7606 182.013 33.0038C182.425 33.8533 182.632 35.1794 182.632 36.982V44.2548ZM178.235 45.2493V36.578C178.235 35.8942 178.142 35.4177 177.957 35.1483C177.73 34.7754 177.275 34.5889 176.594 34.5889C175.913 34.5889 175.469 34.7443 175.263 35.0551C175.057 35.3452 174.953 35.8528 174.953 36.578V45.2493C174.953 45.9745 175.046 46.4718 175.232 46.7412C175.459 47.0727 175.913 47.2384 176.594 47.2384C177.275 47.2384 177.74 47.0623 177.988 46.7101C178.153 46.4407 178.235 45.9538 178.235 45.2493ZM197.198 38.2563C197.198 41.24 196.867 43.8714 196.207 46.1506C195.485 48.637 194.298 50.9888 192.646 53.2058H185.278V50.4086H188.559C186.372 47.0934 185.278 43.0426 185.278 38.2563V31.3876H189.581C189.581 36.5884 189.612 39.6342 189.674 40.5252C189.839 43.3431 190.366 46.2646 191.253 49.2897C192.12 46.2853 192.636 43.3638 192.801 40.5252C192.863 39.6342 192.894 36.5884 192.894 31.3876H197.198V38.2563ZM212.111 50.4086H207.838V35.024H204.494V50.4086H200.222V31.3876H212.111V50.4086ZM227.35 50.4086H223.077V35.024H219.733V50.4086H215.461V31.3876H227.35V50.4086Z" fill="black"/>
<path d="M116.325 50.409V50.594C116.428 50.594 116.51 50.5112 116.51 50.409H116.325ZM111.681 50.409H111.497C111.497 50.5112 111.579 50.594 111.681 50.594V50.409ZM111.681 43.0741H111.866C111.866 42.9853 111.803 42.9091 111.716 42.8924C111.629 42.8758 111.543 42.9236 111.51 43.0061L111.681 43.0741ZM107.47 50.409V50.594C107.527 50.594 107.58 50.5683 107.615 50.5241L107.47 50.409ZM103.136 50.409H102.952C102.952 50.5112 103.034 50.594 103.136 50.594V50.409ZM103.136 28.5909V28.4059C103.034 28.4059 102.952 28.4887 102.952 28.5909H103.136ZM107.78 28.5909H107.964C107.964 28.4887 107.883 28.4059 107.78 28.4059V28.5909ZM107.78 44.5349H107.596C107.596 44.6142 107.647 44.6848 107.721 44.7101C107.796 44.7356 107.879 44.7103 107.927 44.6472L107.78 44.5349ZM111.681 28.5909V28.4059C111.579 28.4059 111.497 28.4887 111.497 28.5909H111.681ZM116.325 28.5909H116.51C116.51 28.4887 116.428 28.4059 116.325 28.4059V28.5909ZM116.325 50.409V50.224H111.681V50.409V50.594H116.325V50.409ZM111.681 50.409H111.866V43.0741H111.681H111.497V50.409H111.681ZM111.681 43.0741L111.51 43.0061C110.464 45.6623 109.069 48.0914 107.327 50.294L107.47 50.409L107.615 50.5241C109.381 48.2926 110.794 45.8317 111.853 43.1422L111.681 43.0741ZM107.47 50.409V50.224H103.136V50.409V50.594H107.47V50.409ZM103.136 50.409H103.32V28.5909H103.136H102.952V50.409H103.136ZM103.136 28.5909V28.7759H107.78V28.5909V28.4059H103.136V28.5909ZM107.78 28.5909H107.596V44.5349H107.78H107.964V28.5909H107.78ZM107.78 44.5349L107.927 44.6472C109.617 42.4269 110.743 39.8619 111.305 36.9556L111.124 36.9203L110.943 36.885C110.391 39.7389 109.288 42.2503 107.634 44.4226L107.78 44.5349ZM111.124 36.9203L111.305 36.9556C111.68 34.9908 111.866 32.2 111.866 28.5909H111.681H111.497C111.497 32.1923 111.311 34.9545 110.943 36.885L111.124 36.9203ZM111.681 28.5909V28.7759H116.325V28.5909V28.4059H111.681V28.5909ZM116.325 28.5909H116.141V50.409H116.325H116.51V28.5909H116.325ZM131.374 48.8861L131.232 48.7682L131.231 48.7696L131.374 48.8861ZM120.847 30.1449L120.99 30.2625L120.99 30.2613L120.847 30.1449ZM132.706 37.2V37.385C132.807 37.385 132.89 37.3022 132.89 37.2H132.706ZM127.937 37.2H127.753C127.753 37.3022 127.836 37.385 127.937 37.385V37.2ZM127.628 32.9421L127.778 32.8345C127.776 32.8314 127.773 32.8284 127.771 32.8254L127.628 32.9421ZM124.656 32.8799L124.786 33.0108L124.79 33.0058L124.656 32.8799ZM127.659 46.0578L127.81 46.1646L127.814 46.1579L127.659 46.0578ZM127.937 40.7431V40.5581C127.836 40.5581 127.753 40.641 127.753 40.7431H127.937ZM132.706 40.7431H132.89C132.89 40.641 132.807 40.5581 132.706 40.5581V40.7431ZM132.706 43.3539H132.521C132.521 45.9542 132.077 47.7425 131.232 48.7682L131.374 48.8861L131.517 49.004C132.447 47.8748 132.89 45.9749 132.89 43.3539H132.706ZM131.374 48.8861L131.231 48.7696C130.313 49.9064 128.63 50.5037 126.111 50.5037V50.6887V50.8737C128.67 50.8737 130.495 50.2693 131.517 49.0026L131.374 48.8861ZM126.111 50.6887V50.5037C123.615 50.5037 121.929 49.897 120.99 48.7383L120.847 48.855L120.704 48.9713C121.747 50.2575 123.57 50.8737 126.111 50.8737V50.6887ZM120.847 48.855L120.991 48.7388C120.165 47.7127 119.731 45.9337 119.731 43.3539H119.547H119.363C119.363 45.9541 119.796 47.8425 120.704 48.9713L120.847 48.855ZM119.547 43.3539H119.731V35.646H119.547H119.363V43.3539H119.547ZM119.547 35.646H119.731C119.731 33.0446 120.165 31.2671 120.99 30.2625L120.847 30.1449L120.705 30.0273C119.795 31.1361 119.363 33.0261 119.363 35.646H119.547ZM120.847 30.1449L120.99 30.2613C121.908 29.1246 123.592 28.5272 126.111 28.5272V28.3422V28.1572C123.552 28.1572 121.727 28.7617 120.704 30.0284L120.847 30.1449ZM126.111 28.3422V28.5272C129.019 28.5272 130.828 29.3188 131.646 30.824L131.808 30.7354L131.97 30.6468C131.054 28.961 129.065 28.1572 126.111 28.1572V28.3422ZM131.808 30.7354L131.646 30.824C131.929 31.344 132.15 32.1315 132.299 33.2007C132.447 34.2667 132.521 35.5992 132.521 37.2H132.706H132.89C132.89 35.5893 132.815 34.2385 132.664 33.1496C132.513 32.0639 132.285 31.2247 131.969 30.6466L131.808 30.7354ZM132.706 37.2V37.015H127.937V37.2V37.385H132.706V37.2ZM127.937 37.2H128.122V34.4961H127.937H127.753V37.2H127.937ZM127.937 34.4961H128.122C128.122 33.7459 128.021 33.1755 127.778 32.8345L127.628 32.9421L127.478 33.0496C127.649 33.2888 127.753 33.7544 127.753 34.4961H127.937ZM127.628 32.9421L127.771 32.8254C127.449 32.4271 126.87 32.2598 126.111 32.2598V32.4448V32.6298C126.838 32.6298 127.27 32.7939 127.485 33.0587L127.628 32.9421ZM126.111 32.4448V32.2598C125.395 32.2598 124.843 32.4056 124.521 32.754L124.656 32.8799L124.79 33.0058C125.005 32.774 125.423 32.6298 126.111 32.6298V32.4448ZM124.656 32.8799L124.525 32.7491C124.203 33.0728 124.069 33.6247 124.069 34.3407H124.253H124.437C124.437 33.6477 124.572 33.2258 124.786 33.0108L124.656 32.8799ZM124.253 34.3407H124.069V44.6592H124.253H124.437V34.3407H124.253ZM124.253 44.6592H124.069C124.069 45.3773 124.204 45.9344 124.521 46.2769L124.656 46.1511L124.79 46.0252C124.571 45.7876 124.437 45.3501 124.437 44.6592H124.253ZM124.656 46.1511L124.521 46.2769C124.843 46.6253 125.395 46.7712 126.111 46.7712V46.5862V46.4012C125.423 46.4012 125.005 46.257 124.79 46.0252L124.656 46.1511ZM126.111 46.5862V46.7712C126.908 46.7712 127.508 46.595 127.81 46.1646L127.659 46.0578L127.508 45.9511C127.315 46.2252 126.883 46.4012 126.111 46.4012V46.5862ZM127.659 46.0578L127.814 46.1579C127.925 45.984 128.001 45.7525 128.05 45.4761C128.098 45.1979 128.122 44.8627 128.122 44.4727H127.937H127.753C127.753 44.8495 127.73 45.1617 127.686 45.4118C127.642 45.6639 127.578 45.8416 127.504 45.9578L127.659 46.0578ZM127.937 44.4727H128.122V40.7431H127.937H127.753V44.4727H127.937ZM127.937 40.7431V40.9281H132.706V40.7431V40.5581H127.937V40.7431ZM132.706 40.7431H132.521V43.3539H132.706H132.89V40.7431H132.706ZM147.683 48.7618L147.541 48.644L147.54 48.6452L147.683 48.7618ZM135.67 50.409H135.485C135.485 50.5112 135.568 50.594 135.67 50.594V50.409ZM135.67 28.5909V28.4059C135.568 28.4059 135.485 28.4887 135.485 28.5909H135.67ZM147.745 28.5909H147.929C147.929 28.4887 147.847 28.4059 147.745 28.4059V28.5909ZM147.745 32.6934V32.8784C147.847 32.8784 147.929 32.7956 147.929 32.6934H147.745ZM140.221 32.6934V32.5084C140.119 32.5084 140.037 32.5912 140.037 32.6934H140.221ZM140.221 36.423H140.037C140.037 36.477 140.06 36.5283 140.101 36.5634C140.142 36.5986 140.196 36.6141 140.249 36.6059L140.221 36.423ZM147.559 38.1635L147.706 38.0512L147.705 38.0503L147.559 38.1635ZM143.906 41.1783L143.738 41.2549L143.74 41.2578L143.906 41.1783ZM140.221 40.308L140.191 40.1255C140.102 40.1404 140.037 40.2176 140.037 40.308H140.221ZM140.221 46.3065H140.037C140.037 46.4087 140.119 46.4915 140.221 46.4915V46.3065ZM143.596 45.6538L143.462 45.5261L143.46 45.5297L143.596 45.6538ZM148.859 43.416H148.675C148.675 44.7132 148.578 45.797 148.385 46.6706C148.193 47.5455 147.908 48.1982 147.541 48.644L147.683 48.7618L147.825 48.8796C148.242 48.3723 148.546 47.6574 148.745 46.7504C148.946 45.842 149.044 44.7296 149.044 43.416H148.859ZM147.683 48.7618L147.54 48.6452C146.708 49.6755 145.069 50.224 142.543 50.224V50.409V50.594C145.096 50.594 146.884 50.0444 147.826 48.8783L147.683 48.7618ZM142.543 50.409V50.224H135.67V50.409V50.594H142.543V50.409ZM135.67 50.409H135.854V28.5909H135.67H135.485V50.409H135.67ZM135.67 28.5909V28.7759H147.745V28.5909V28.4059H135.67V28.5909ZM147.745 28.5909H147.56V32.6934H147.745H147.929V28.5909H147.745ZM147.745 32.6934V32.5084H140.221V32.6934V32.8784H147.745V32.6934ZM140.221 32.6934H140.037V36.423H140.221H140.405V32.6934H140.221ZM140.221 36.423L140.249 36.6059C141.045 36.483 141.851 36.4215 142.667 36.4215V36.2365V36.0515C141.833 36.0515 141.008 36.1144 140.193 36.2402L140.221 36.423ZM142.667 36.2365V36.4215C144.905 36.4215 146.47 37.0537 147.414 38.2767L147.559 38.1635L147.705 38.0503C146.667 36.704 144.971 36.0515 142.667 36.0515V36.2365ZM147.559 38.1635L147.413 38.2758C148.244 39.3682 148.675 41.0704 148.675 43.416H148.859H149.044C149.044 41.0374 148.609 39.2381 147.706 38.0512L147.559 38.1635ZM144.215 43.416H144.399C144.399 42.357 144.298 41.5743 144.072 41.0987L143.906 41.1783L143.74 41.2578C143.927 41.6525 144.031 42.3616 144.031 43.416H144.215ZM143.906 41.1783L144.074 41.1017C143.903 40.7267 143.648 40.4392 143.307 40.2476C142.968 40.0572 142.555 39.9676 142.079 39.9676V40.1526V40.3376C142.511 40.3376 142.857 40.419 143.127 40.5705C143.395 40.7207 143.598 40.9461 143.738 41.2549L143.906 41.1783ZM142.079 40.1526V39.9676C141.449 39.9676 140.82 40.0203 140.191 40.1255L140.221 40.308L140.251 40.4905C140.861 40.3885 141.47 40.3376 142.079 40.3376V40.1526ZM140.221 40.308H140.037V46.3065H140.221H140.405V40.308H140.221ZM140.221 46.3065V46.4915H141.429V46.3065V46.1215H140.221V46.3065ZM141.429 46.3065V46.4915C142.495 46.4915 143.286 46.2734 143.733 45.7779L143.596 45.6538L143.46 45.5297C143.122 45.9044 142.468 46.1215 141.429 46.1215V46.3065ZM143.596 45.6538L143.729 45.7814C144.192 45.2937 144.399 44.4872 144.399 43.416H144.215H144.031C144.031 44.4582 143.826 45.1436 143.462 45.5261L143.596 45.6538ZM168.184 32.7556V32.9406C168.286 32.9406 168.368 32.8578 168.368 32.7556H168.184ZM163.261 32.7556V32.5706C163.159 32.5706 163.077 32.6534 163.077 32.7556H163.261ZM163.261 50.409V50.594C163.363 50.594 163.445 50.5112 163.445 50.409H163.261ZM158.71 50.409H158.525C158.525 50.5112 158.608 50.594 158.71 50.594V50.409ZM158.71 28.5909V28.4059C158.608 28.4059 158.525 28.4887 158.525 28.5909H158.71ZM168.184 28.5909H168.368C168.368 28.4887 168.286 28.4059 168.184 28.4059V28.5909ZM168.184 32.7556V32.5706H163.261V32.7556V32.9406H168.184V32.7556ZM163.261 32.7556H163.077V50.409H163.261H163.445V32.7556H163.261ZM163.261 50.409V50.224H158.71V50.409V50.594H163.261V50.409ZM158.71 50.409H158.894V28.5909H158.71H158.525V50.409H158.71ZM158.71 28.5909V28.7759H168.184V28.5909V28.4059H158.71V28.5909ZM168.184 28.5909H168V32.7556H168.184H168.368V28.5909H168.184ZM176.47 50.1293L176.367 50.282L176.371 50.2849L176.47 50.1293ZM174.953 48.6685L175.092 48.5462C175.041 48.4884 174.96 48.4683 174.888 48.4955C174.817 48.5227 174.769 48.5916 174.769 48.6685H174.953ZM174.953 53.2062V53.3912C175.055 53.3912 175.138 53.3084 175.138 53.2062H174.953ZM170.65 53.2062H170.465C170.465 53.3084 170.548 53.3912 170.65 53.3912V53.2062ZM170.65 31.3881V31.2031C170.548 31.2031 170.465 31.2859 170.465 31.3881H170.65ZM174.644 31.3881H174.828C174.828 31.2859 174.745 31.2031 174.644 31.2031V31.3881ZM174.644 33.2218H174.459C174.459 33.2957 174.504 33.3625 174.571 33.3918C174.639 33.4209 174.717 33.4069 174.771 33.3561L174.644 33.2218ZM176.47 31.6989L176.381 31.5375L176.374 31.5415L176.47 31.6989ZM182.013 33.0042L181.846 33.0824L181.847 33.0853L182.013 33.0042ZM177.957 35.1487L177.8 35.2452C177.802 35.2482 177.803 35.2512 177.805 35.254L177.957 35.1487ZM175.263 35.0555L175.413 35.1631L175.416 35.1581L175.263 35.0555ZM177.988 46.7105L178.139 46.8172C178.141 46.814 178.143 46.8108 178.145 46.8074L177.988 46.7105ZM182.632 44.2552H182.448C182.448 45.3598 182.407 46.2797 182.325 47.0164C182.243 47.7561 182.122 48.2992 181.968 48.6573L182.136 48.7307L182.306 48.8041C182.482 48.3956 182.608 47.8094 182.692 47.0573C182.775 46.3022 182.816 45.3676 182.816 44.2552H182.632ZM182.136 48.7307L181.968 48.6573C181.704 49.2724 181.289 49.73 180.719 50.0361C180.145 50.3438 179.402 50.5037 178.483 50.5037V50.6887V50.8737C179.442 50.8737 180.248 50.7073 180.892 50.3624C181.539 50.0158 182.011 49.4944 182.306 48.8041L182.136 48.7307ZM178.483 50.6887V50.5037C177.751 50.5037 177.115 50.3253 176.571 49.9737L176.47 50.1293L176.371 50.2849C176.982 50.6792 177.688 50.8737 178.483 50.8737V50.6887ZM176.47 50.1293L176.575 49.9766C176.202 49.7207 175.709 49.248 175.092 48.5462L174.953 48.6685L174.815 48.7909C175.437 49.4981 175.955 49.9993 176.367 50.282L176.47 50.1293ZM174.953 48.6685H174.769V53.2062H174.953H175.138V48.6685H174.953ZM174.953 53.2062V53.0212H170.65V53.2062V53.3912H174.953V53.2062ZM170.65 53.2062H170.834V31.3881H170.65H170.465V53.2062H170.65ZM170.65 31.3881V31.5731H174.644V31.3881V31.2031H170.65V31.3881ZM174.644 31.3881H174.459V33.2218H174.644H174.828V31.3881H174.644ZM174.644 33.2218L174.771 33.3561C175.554 32.6114 176.151 32.115 176.568 31.8562L176.47 31.6989L176.374 31.5415C175.923 31.8215 175.303 32.3403 174.517 33.0875L174.644 33.2218ZM176.47 31.6989L176.561 31.8601C177.19 31.5048 177.922 31.3244 178.762 31.3244V31.1394V30.9544C177.868 30.9544 177.072 31.1468 176.381 31.5375L176.47 31.6989ZM178.762 31.1394V31.3244C179.533 31.3244 180.168 31.4752 180.675 31.7663C181.181 32.0563 181.572 32.4921 181.846 33.0824L182.013 33.0042L182.18 32.926C181.876 32.2732 181.436 31.7766 180.858 31.445C180.282 31.1144 179.58 30.9544 178.762 30.9544V31.1394ZM182.013 33.0042L181.847 33.0853C182.241 33.8958 182.448 35.1869 182.448 36.9825H182.632H182.816C182.816 35.1727 182.61 33.8117 182.178 32.9231L182.013 33.0042ZM182.632 36.9825H182.448V44.2552H182.632H182.816V36.9825H182.632ZM178.235 45.2497H178.42V36.5784H178.235H178.051V45.2497H178.235ZM178.235 36.5784H178.42C178.42 35.8902 178.329 35.3629 178.108 35.0434L177.957 35.1487L177.805 35.254C177.957 35.4733 178.051 35.8991 178.051 36.5784H178.235ZM177.957 35.1487L178.114 35.0523C177.838 34.598 177.302 34.4043 176.594 34.4043V34.5893V34.7743C177.25 34.7743 177.622 34.9535 177.8 35.2452L177.957 35.1487ZM176.594 34.5893V34.4043C175.901 34.4043 175.371 34.5598 175.11 34.9529L175.263 35.0555L175.416 35.1581C175.568 34.9296 175.926 34.7743 176.594 34.7743V34.5893ZM175.263 35.0555L175.113 34.948C174.871 35.2885 174.769 35.8476 174.769 36.5784H174.953H175.138C175.138 35.8589 175.242 35.4028 175.413 35.1631L175.263 35.0555ZM174.953 36.5784H174.769V45.2497H174.953H175.138V36.5784H174.953ZM174.953 45.2497H174.769C174.769 45.6193 174.793 45.9371 174.842 46.2007C174.891 46.4624 174.967 46.6824 175.081 46.8469L175.232 46.7416L175.384 46.6368C175.312 46.5319 175.248 46.3681 175.205 46.1325C175.16 45.8988 175.138 45.6054 175.138 45.2497H174.953ZM175.232 46.7416L175.08 46.8464C175.36 47.2551 175.895 47.4239 176.594 47.4239V47.2389V47.0539C175.932 47.0539 175.559 46.8911 175.384 46.6368L175.232 46.7416ZM176.594 47.2389V47.4239C177.3 47.4239 177.839 47.2421 178.139 46.8172L177.988 46.7105L177.837 46.6038C177.64 46.8834 177.252 47.0539 176.594 47.0539V47.2389ZM177.988 46.7105L178.145 46.8074C178.339 46.49 178.42 45.9559 178.42 45.2497H178.235H178.051C178.051 45.9526 177.966 46.3923 177.831 46.6136L177.988 46.7105ZM192.646 53.2062V53.3912C192.705 53.3912 192.759 53.3637 192.794 53.317L192.646 53.2062ZM185.278 53.2062H185.093C185.093 53.3084 185.176 53.3912 185.278 53.3912V53.2062ZM185.278 50.409V50.224C185.176 50.224 185.093 50.3068 185.093 50.409H185.278ZM188.559 50.409V50.594C188.627 50.594 188.69 50.5566 188.722 50.4966C188.754 50.4366 188.75 50.3637 188.714 50.3068L188.559 50.409ZM185.278 31.3881V31.2031C185.176 31.2031 185.093 31.2859 185.093 31.3881H185.278ZM189.581 31.3881H189.765C189.765 31.2859 189.683 31.2031 189.581 31.2031V31.3881ZM189.674 40.5256L189.858 40.5147V40.5127L189.674 40.5256ZM191.253 49.2901L191.076 49.3424C191.1 49.4213 191.172 49.4753 191.254 49.4751C191.336 49.4749 191.407 49.4205 191.43 49.3416L191.253 49.2901ZM192.801 40.5256L192.618 40.5127V40.5148L192.801 40.5256ZM192.894 31.3881V31.2031C192.792 31.2031 192.71 31.2859 192.71 31.3881H192.894ZM197.198 31.3881H197.382C197.382 31.2859 197.299 31.2031 197.198 31.2031V31.3881ZM197.198 38.2567H197.013C197.013 41.2272 196.685 43.8406 196.03 46.0994L196.207 46.1511L196.384 46.2029C197.05 43.9032 197.382 41.2537 197.382 38.2567H197.198ZM196.207 46.1511L196.03 46.0994C195.314 48.5631 194.138 50.8949 192.499 53.0954L192.646 53.2062L192.794 53.317C194.458 51.0835 195.655 48.712 196.384 46.2029L196.207 46.1511ZM192.646 53.2062V53.0212H185.278V53.2062V53.3912H192.646V53.2062ZM185.278 53.2062H185.462V50.409H185.278H185.093V53.2062H185.278ZM185.278 50.409V50.594H188.559V50.409V50.224H185.278V50.409ZM188.559 50.409L188.714 50.3068C186.549 47.0277 185.462 43.0142 185.462 38.2567H185.278H185.093C185.093 43.0719 186.194 47.16 188.406 50.5112L188.559 50.409ZM185.278 38.2567H185.462V31.3881H185.278H185.093V38.2567H185.278ZM185.278 31.3881V31.5731H189.581V31.3881V31.2031H185.278V31.3881ZM189.581 31.3881H189.397C189.397 36.5849 189.428 39.6393 189.491 40.5385L189.674 40.5256L189.858 40.5127C189.796 39.63 189.765 36.5927 189.765 31.3881H189.581ZM189.674 40.5256L189.491 40.5365C189.656 43.3699 190.186 46.3054 191.076 49.3424L191.253 49.2901L191.43 49.2379C190.546 46.2247 190.022 43.3171 189.858 40.5147L189.674 40.5256ZM191.253 49.2901L191.43 49.3416C192.301 46.3253 192.819 43.3901 192.985 40.5364L192.801 40.5256L192.618 40.5148C192.453 43.3384 191.939 46.2462 191.076 49.2386L191.253 49.2901ZM192.801 40.5256L192.985 40.5385C193.047 39.6393 193.078 36.5849 193.078 31.3881H192.894H192.71C192.71 36.5927 192.679 39.63 192.618 40.5127L192.801 40.5256ZM192.894 31.3881V31.5731H197.198V31.3881V31.2031H192.894V31.3881ZM197.198 31.3881H197.013V38.2567H197.198H197.382V31.3881H197.198ZM212.111 50.409V50.594C212.213 50.594 212.295 50.5112 212.295 50.409H212.111ZM207.838 50.409H207.654C207.654 50.5112 207.736 50.594 207.838 50.594V50.409ZM207.838 35.0244H208.022C208.022 34.9222 207.94 34.8394 207.838 34.8394V35.0244ZM204.494 35.0244V34.8394C204.393 34.8394 204.31 34.9222 204.31 35.0244H204.494ZM204.494 50.409V50.594C204.596 50.594 204.679 50.5112 204.679 50.409H204.494ZM200.222 50.409H200.037C200.037 50.5112 200.12 50.594 200.222 50.594V50.409ZM200.222 31.3881V31.2031C200.12 31.2031 200.037 31.2859 200.037 31.3881H200.222ZM212.111 31.3881H212.295C212.295 31.2859 212.213 31.2031 212.111 31.2031V31.3881ZM212.111 50.409V50.224H207.838V50.409V50.594H212.111V50.409ZM207.838 50.409H208.022V35.0244H207.838H207.654V50.409H207.838ZM207.838 35.0244V34.8394H204.494V35.0244V35.2094H207.838V35.0244ZM204.494 35.0244H204.31V50.409H204.494H204.679V35.0244H204.494ZM204.494 50.409V50.224H200.222V50.409V50.594H204.494V50.409ZM200.222 50.409H200.406V31.3881H200.222H200.037V50.409H200.222ZM200.222 31.3881V31.5731H212.111V31.3881V31.2031H200.222V31.3881ZM212.111 31.3881H211.927V50.409H212.111H212.295V31.3881H212.111ZM227.35 50.409V50.594C227.452 50.594 227.534 50.5112 227.534 50.409H227.35ZM223.077 50.409H222.893C222.893 50.5112 222.975 50.594 223.077 50.594V50.409ZM223.077 35.0244H223.261C223.261 34.9222 223.179 34.8394 223.077 34.8394V35.0244ZM219.733 35.0244V34.8394C219.631 34.8394 219.549 34.9222 219.549 35.0244H219.733ZM219.733 50.409V50.594C219.835 50.594 219.918 50.5112 219.918 50.409H219.733ZM215.461 50.409H215.276C215.276 50.5112 215.358 50.594 215.461 50.594V50.409ZM215.461 31.3881V31.2031C215.358 31.2031 215.276 31.2859 215.276 31.3881H215.461ZM227.35 31.3881H227.534C227.534 31.2859 227.452 31.2031 227.35 31.2031V31.3881ZM227.35 50.409V50.224H223.077V50.409V50.594H227.35V50.409ZM223.077 50.409H223.261V35.0244H223.077H222.893V50.409H223.077ZM223.077 35.0244V34.8394H219.733V35.0244V35.2094H223.077V35.0244ZM219.733 35.0244H219.549V50.409H219.733H219.918V35.0244H219.733ZM219.733 50.409V50.224H215.461V50.409V50.594H219.733V50.409ZM215.461 50.409H215.645V31.3881H215.461H215.276V50.409H215.461ZM215.461 31.3881V31.5731H227.35V31.3881V31.2031H215.461V31.3881ZM227.35 31.3881H227.166V50.409H227.35H227.534V31.3881H227.35Z" fill="black"/>
<path d="M101.371 58.9189H229.64" stroke="black"/>
<path d="M103.054 71.1288V64.1299H103.897V67.2488H107.612V64.1299H108.455V71.1288H107.612V68.0005H103.897V71.1288H103.054ZM113.709 71.2509C113.378 71.2509 113.077 71.1883 112.806 71.063C112.534 70.9346 112.319 70.7499 112.16 70.5088C112.001 70.2677 111.922 69.9764 111.922 69.635C111.922 69.3345 111.981 69.0917 112.099 68.907C112.218 68.7191 112.376 68.572 112.572 68.4655C112.772 68.3559 112.99 68.2744 113.227 68.2212C113.467 68.168 113.709 68.1257 113.952 68.0944C114.27 68.0537 114.528 68.0224 114.724 68.0005C114.924 67.9785 115.069 67.941 115.159 67.8877C115.253 67.8345 115.3 67.7437 115.3 67.6152V67.5871C115.3 67.252 115.208 66.9921 115.024 66.8073C114.843 66.6194 114.567 66.5255 114.196 66.5255C113.815 66.5255 113.515 66.61 113.297 66.7792C113.079 66.9451 112.926 67.1236 112.839 67.3146L112.071 67.0422C112.208 66.7228 112.391 66.4738 112.619 66.2953C112.85 66.1168 113.099 65.9916 113.367 65.9195C113.639 65.8475 113.905 65.8115 114.168 65.8115C114.336 65.8115 114.53 65.8319 114.748 65.8726C114.966 65.9101 115.178 65.9916 115.384 66.1168C115.593 66.239 115.764 66.4253 115.899 66.6758C116.036 66.9232 116.105 67.2551 116.105 67.6716V71.1288H115.3V70.4148H115.262C115.209 70.5275 115.119 70.6497 114.991 70.7812C114.863 70.9096 114.693 71.0208 114.481 71.1147C114.272 71.2055 114.014 71.2509 113.709 71.2509ZM113.831 70.5276C114.149 70.5276 114.417 70.4649 114.636 70.3397C114.854 70.2144 115.019 70.0531 115.131 69.8559C115.244 69.6554 115.3 69.4471 115.3 69.2311V68.4889C115.265 68.5296 115.191 68.5672 115.075 68.6017C114.963 68.633 114.832 68.6612 114.682 68.6862C114.536 68.7113 114.392 68.7332 114.252 68.752C114.112 68.7676 113.999 68.7802 113.915 68.7896C113.706 68.8177 113.511 68.8631 113.33 68.9257C113.149 68.9852 113.002 69.0746 112.89 69.1936C112.781 69.3125 112.727 69.4753 112.727 69.682C112.727 69.9607 112.829 70.1721 113.035 70.3162C113.244 70.4571 113.509 70.5276 113.831 70.5276ZM119.16 72.6319V70.3773H119.59C119.697 70.2645 119.789 70.1439 119.867 70.0155C119.948 69.8872 120.017 69.7337 120.073 69.5552C120.129 69.3736 120.177 69.1544 120.218 68.8976C120.261 68.6408 120.299 68.3292 120.33 67.9629L120.508 65.8772H123.83V70.3773H124.635V72.6319H123.83V71.1288H119.965V72.6319H119.16ZM120.508 70.3773H123.026V66.6288H121.256L121.116 67.9629C121.063 68.5108 120.995 68.99 120.911 69.4002C120.826 69.8104 120.692 70.1361 120.508 70.3773ZM130.03 71.2415C129.528 71.2415 129.093 71.1288 128.725 70.9033C128.36 70.6778 128.079 70.3631 127.882 69.9592C127.686 69.5521 127.587 69.0808 127.587 68.5453C127.587 68.0067 127.685 67.5323 127.878 67.122C128.071 66.7118 128.342 66.3908 128.692 66.1591C129.045 65.9273 129.456 65.8115 129.927 65.8115C130.198 65.8115 130.468 65.8569 130.737 65.9477C131.005 66.0386 131.248 66.1857 131.467 66.3893C131.688 66.5928 131.864 66.8621 131.996 67.1972C132.127 67.5323 132.192 67.9441 132.192 68.4325V68.7802H128.159V68.085H131.757L131.388 68.348C131.388 67.9973 131.333 67.6857 131.223 67.4133C131.114 67.1408 130.95 66.9263 130.732 66.7698C130.517 66.6132 130.249 66.5349 129.927 66.5349C129.606 66.5349 129.33 66.6147 129.099 66.7744C128.872 66.931 128.697 67.1361 128.575 67.3898C128.454 67.6434 128.392 67.9159 128.392 68.2071V68.6674C128.392 69.0652 128.461 69.4018 128.598 69.6774C128.736 69.9529 128.928 70.1627 129.174 70.3068C129.421 70.4477 129.706 70.5182 130.03 70.5182C130.239 70.5182 130.43 70.4884 130.601 70.4289C130.773 70.3663 130.921 70.2739 131.045 70.1518C131.171 70.0265 131.266 69.8731 131.331 69.6914L132.108 69.9169C132.027 70.18 131.89 70.4117 131.696 70.6121C131.505 70.8094 131.269 70.9644 130.985 71.0771C130.701 71.1867 130.383 71.2415 130.03 71.2415ZM135.07 71.1288L137.194 68.4607L135.098 65.8772H136.043L137.793 68.1226H138.223V65.8772H139.028V68.1226H139.449L141.191 65.8772H142.145L140.058 68.4607L142.173 71.1288H141.209L139.44 68.8741H139.028V71.1288H138.223V68.8741H137.812L136.034 71.1288H135.07ZM148.953 68.1319V68.8835H146.071V68.1319H148.953ZM146.258 65.8772V71.1288H145.462V65.8772H146.258ZM149.571 65.8772V71.1288H148.766V65.8772H149.571ZM153.88 67.7844H155.378C155.989 67.7812 156.458 67.9362 156.782 68.2494C157.106 68.5626 157.268 68.9587 157.268 69.4378C157.268 69.7509 157.195 70.0359 157.048 70.2927C156.905 70.5463 156.693 70.7499 156.412 70.9033C156.131 71.0536 155.787 71.1288 155.378 71.1288H153.188V65.8772H153.984V70.3773H155.378C155.693 70.3773 155.952 70.2942 156.155 70.1282C156.36 69.9592 156.463 69.7415 156.463 69.4753C156.463 69.1967 156.36 68.9696 156.155 68.7943C155.952 68.6189 155.693 68.5328 155.378 68.5359H153.88V67.7844ZM158.101 71.1288V65.8772H158.897V71.1288H158.101ZM164.704 71.2415C164.202 71.2415 163.766 71.1288 163.398 70.9033C163.033 70.6778 162.752 70.3631 162.555 69.9592C162.359 69.5521 162.261 69.0808 162.261 68.5453C162.261 68.0067 162.358 67.5323 162.551 67.122C162.744 66.7118 163.016 66.3908 163.366 66.1591C163.718 65.9273 164.129 65.8115 164.6 65.8115C164.872 65.8115 165.142 65.8569 165.41 65.9477C165.678 66.0386 165.921 66.1857 166.14 66.3893C166.362 66.5928 166.538 66.8621 166.669 67.1972C166.8 67.5323 166.866 67.9441 166.866 68.4325V68.7802H162.832V68.085H166.43L166.061 68.348C166.061 67.9973 166.006 67.6857 165.897 67.4133C165.787 67.1408 165.624 66.9263 165.405 66.7698C165.19 66.6132 164.922 66.5349 164.6 66.5349C164.279 66.5349 164.003 66.6147 163.773 66.7744C163.545 66.931 163.37 67.1361 163.248 67.3898C163.127 67.6434 163.066 67.9159 163.066 68.2071V68.6674C163.066 69.0652 163.134 69.4018 163.272 69.6774C163.409 69.9529 163.601 70.1627 163.847 70.3068C164.094 70.4477 164.379 70.5182 164.704 70.5182C164.912 70.5182 165.103 70.4884 165.274 70.4289C165.446 70.3663 165.594 70.2739 165.719 70.1518C165.844 70.0265 165.939 69.8731 166.005 69.6914L166.781 69.9169C166.7 70.18 166.563 70.4117 166.37 70.6121C166.179 70.8094 165.942 70.9644 165.658 71.0771C165.374 71.1867 165.056 71.2415 164.704 71.2415ZM175.147 71.1288V64.1299H177.506C178.052 64.1299 178.498 64.2285 178.844 64.4258C179.194 64.6231 179.452 64.8893 179.621 65.2243C179.789 65.5594 179.874 65.9336 179.874 66.347C179.874 66.7572 179.789 67.1314 179.621 67.4697C179.455 67.8078 179.198 68.0771 178.849 68.2776C178.503 68.4749 178.058 68.5735 177.515 68.5735H175.831V67.8219H177.487C177.862 67.8219 178.162 67.7577 178.39 67.6293C178.618 67.501 178.784 67.3256 178.886 67.1033C178.989 66.8778 179.041 66.6257 179.041 66.347C179.041 66.0651 178.989 65.8146 178.886 65.5955C178.784 65.3731 178.616 65.1993 178.386 65.074C178.158 64.9457 177.856 64.8814 177.478 64.8814H175.99V71.1288H175.147ZM185.4 71.2415C184.898 71.2415 184.462 71.1288 184.094 70.9033C183.729 70.6778 183.449 70.3631 183.252 69.9592C183.056 69.5521 182.957 69.0808 182.957 68.5453C182.957 68.0067 183.054 67.5323 183.247 67.122C183.44 66.7118 183.712 66.3908 184.061 66.1591C184.414 65.9273 184.826 65.8115 185.297 65.8115C185.568 65.8115 185.838 65.8569 186.106 65.9477C186.374 66.0386 186.618 66.1857 186.837 66.3893C187.058 66.5928 187.234 66.8621 187.365 67.1972C187.496 67.5323 187.561 67.9441 187.561 68.4325V68.7802H183.528V68.085H187.126L186.757 68.348C186.757 67.9973 186.703 67.6857 186.593 67.4133C186.484 67.1408 186.32 66.9263 186.102 66.7698C185.886 66.6132 185.618 66.5349 185.297 66.5349C184.975 66.5349 184.7 66.6147 184.469 66.7744C184.241 66.931 184.066 67.1361 183.945 67.3898C183.823 67.6434 183.762 67.9159 183.762 68.2071V68.6674C183.762 69.0652 183.83 69.4018 183.968 69.6774C184.105 69.9529 184.297 70.1627 184.543 70.3068C184.79 70.4477 185.076 70.5182 185.4 70.5182C185.609 70.5182 185.799 70.4884 185.97 70.4289C186.142 70.3663 186.29 70.2739 186.415 70.1518C186.54 70.0265 186.635 69.8731 186.701 69.6914L187.477 69.9169C187.396 70.18 187.259 70.4117 187.066 70.6121C186.876 70.8094 186.638 70.9644 186.355 71.0771C186.071 71.1867 185.752 71.2415 185.4 71.2415ZM190.907 65.8772H191.703V70.3773H193.678V65.8772H194.482V70.3773H196.457V65.8772H197.262V71.1288H190.907V65.8772ZM203.069 71.2415C202.567 71.2415 202.131 71.1288 201.763 70.9033C201.398 70.6778 201.117 70.3631 200.921 69.9592C200.724 69.5521 200.626 69.0808 200.626 68.5453C200.626 68.0067 200.723 67.5323 200.916 67.122C201.11 66.7118 201.381 66.3908 201.731 66.1591C202.083 65.9273 202.494 65.8115 202.965 65.8115C203.237 65.8115 203.507 65.8569 203.776 65.9477C204.044 66.0386 204.287 66.1857 204.505 66.3893C204.727 66.5928 204.903 66.8621 205.034 67.1972C205.165 67.5323 205.231 67.9441 205.231 68.4325V68.7802H201.197V68.085H204.795L204.426 68.348C204.426 67.9973 204.371 67.6857 204.262 67.4133C204.153 67.1408 203.989 66.9263 203.77 66.7698C203.555 66.6132 203.287 66.5349 202.965 66.5349C202.645 66.5349 202.368 66.6147 202.138 66.7744C201.91 66.931 201.735 67.1361 201.613 67.3898C201.492 67.6434 201.431 67.9159 201.431 68.2071V68.6674C201.431 69.0652 201.5 69.4018 201.637 69.6774C201.774 69.9529 201.966 70.1627 202.212 70.3068C202.459 70.4477 202.744 70.5182 203.069 70.5182C203.278 70.5182 203.468 70.4884 203.64 70.4289C203.811 70.3663 203.959 70.2739 204.084 70.1518C204.209 70.0265 204.304 69.8731 204.37 69.6914L205.146 69.9169C205.065 70.18 204.928 70.4117 204.735 70.6121C204.544 70.8094 204.307 70.9644 204.023 71.0771C203.739 71.1867 203.421 71.2415 203.069 71.2415ZM212.067 68.1319V68.8835H209.184V68.1319H212.067ZM209.372 65.8772V71.1288H208.576V65.8772H209.372ZM212.684 65.8772V71.1288H211.88V65.8772H212.684ZM217.097 69.9357L219.615 65.8772H220.541V71.1288H219.746V67.0703L217.237 71.1288H216.302V65.8772H217.097V69.9357ZM227.303 71.1288V66.6194H225.908C225.596 66.6194 225.35 66.693 225.169 66.8402C224.991 66.9842 224.904 67.1831 224.907 67.4367C224.904 67.6873 224.984 67.8846 225.146 68.0286C225.308 68.1726 225.53 68.2447 225.814 68.2447H227.499V68.9963H225.814C225.459 68.9963 225.153 68.9336 224.897 68.8084C224.641 68.6831 224.445 68.5046 224.308 68.2728C224.17 68.038 224.102 67.7593 224.102 67.4367C224.102 67.1142 224.173 66.8371 224.317 66.6053C224.464 66.3736 224.671 66.1951 224.939 66.0699C225.211 65.9415 225.533 65.8772 225.908 65.8772H228.06V71.1288H227.303ZM223.812 71.1288L225.3 68.5171H226.17L224.682 71.1288H223.812Z" fill="black"/>
<defs>
<filter id="filter0_f_132_1075" x="3.1718" y="3.1999" width="66.8005" height="62.4923" filterUnits="userSpaceOnUse" color-interpolation-filters="sRGB">
<feFlood flood-opacity="0" result="BackgroundImageFix"/>
<feBlend mode="normal" in="SourceGraphic" in2="BackgroundImageFix" result="shape"/>
<feGaussianBlur stdDeviation="2.1" result="effect1_foregroundBlur_132_1075"/>
</filter>
</defs>
</svg>
