<svg width="22" height="22" viewBox="0 0 22 22" fill="none" xmlns="http://www.w3.org/2000/svg">
<path d="M3.12695 1.08789C3.9614 0.209866 5.39385 0.317946 6.15918 1.40039L7.7002 3.58008C8.32413 4.46247 8.24423 5.65587 7.55469 6.38184L7.2041 6.75098L7.49512 7.02734C7.22825 6.77398 7.2054 6.75332 7.20312 6.75195L7.19531 6.75977C7.19227 6.76311 7.18915 6.76734 7.18555 6.77148C7.17826 6.77987 7.16942 6.79005 7.16016 6.80176C7.14161 6.82522 7.11952 6.85538 7.0957 6.89258C7.04765 6.96768 6.99267 7.07114 6.94531 7.2041C6.84944 7.47351 6.78955 7.84996 6.86133 8.33984C7.00343 9.30889 7.65348 10.6989 9.49219 12.6348C11.3283 14.5679 12.6561 15.2623 13.5967 15.415C14.0745 15.4926 14.444 15.4282 14.71 15.3232C14.8408 15.2716 14.9416 15.2119 15.0146 15.1602C15.051 15.1344 15.0808 15.1107 15.1035 15.0908C15.1149 15.0809 15.1247 15.0713 15.1328 15.0635C15.1368 15.0596 15.1404 15.056 15.1436 15.0527C15.1451 15.0512 15.1471 15.0502 15.1484 15.0488C15.1491 15.0481 15.1497 15.0466 15.1504 15.0459L15.1514 15.0449C15.1499 15.0427 15.1249 15.0183 14.79 14.7002L15.1523 15.0439L15.709 14.458C16.3157 13.8193 17.2615 13.6834 18.0508 14.1377L20.3857 15.4814C21.6145 16.1887 21.8719 17.925 20.9307 18.916L19.1943 20.7441C18.8077 21.1512 18.364 21.4101 17.8887 21.457C16.0267 21.6408 11.3168 21.4614 6.24805 16.125C1.43931 11.0622 0.607039 6.75991 0.50293 4.82031C0.469121 4.18957 0.746379 3.59453 1.20801 3.1084L3.12695 1.08789Z" fill="white" stroke="black"/>
</svg>
