<svg width="60" height="60" viewBox="0 0 60 60" fill="none" xmlns="http://www.w3.org/2000/svg">
<path d="M38.3749 19.2845C38.3125 19.0972 38.1931 18.9342 38.0334 18.8182C37.8737 18.7022 37.6817 18.6391 37.4843 18.6376H32.8249L31.3906 14.2126C31.3289 14.0251 31.2096 13.8618 31.0497 13.746C30.8898 13.6302 30.6974 13.5679 30.4999 13.5679C30.3025 13.5679 30.1101 13.6302 29.9502 13.746C29.7902 13.8618 29.671 14.0251 29.6093 14.2126L28.1749 18.6376H23.5156C23.3182 18.6391 23.1262 18.7022 22.9665 18.8182C22.8068 18.9342 22.6873 19.0972 22.6249 19.2845C22.5626 19.4736 22.5627 19.6777 22.6251 19.8667C22.6876 20.0558 22.8091 20.2198 22.9718 20.3345L26.7312 23.072L25.2968 27.497C25.2349 27.6852 25.2342 27.8882 25.2948 28.0769C25.3555 28.2655 25.4743 28.4301 25.6343 28.547C25.7961 28.6614 25.9893 28.7228 26.1874 28.7228C26.3855 28.7228 26.5788 28.6614 26.7406 28.547L30.4999 25.8095L34.2593 28.547C34.4225 28.6589 34.6147 28.7208 34.8124 28.7251C35.0107 28.7236 35.2037 28.6614 35.3656 28.547C35.5256 28.4301 35.6444 28.2655 35.705 28.0769C35.7657 27.8882 35.765 27.6852 35.7031 27.497L34.2687 23.072L38.0281 20.3345C38.1907 20.2198 38.3123 20.0558 38.3747 19.8667C38.4372 19.6777 38.4372 19.4736 38.3749 19.2845ZM32.6187 21.9564C32.4577 22.0726 32.3375 22.2367 32.2752 22.4252C32.2129 22.6138 32.2117 22.8171 32.2718 23.0064L33.0312 25.3314L31.0531 23.8876C30.8919 23.7718 30.6984 23.7095 30.4999 23.7095C30.3015 23.7095 30.108 23.7718 29.9468 23.8876L27.9687 25.3314L28.7281 23.0064C28.7881 22.8171 28.7869 22.6138 28.7246 22.4252C28.6624 22.2367 28.5422 22.0726 28.3812 21.9564L26.4031 20.5126H28.8499C29.0479 20.5138 29.2411 20.4517 29.4014 20.3353C29.5616 20.2189 29.6804 20.0544 29.7406 19.8658L30.4999 17.5408L31.2593 19.8658C31.3194 20.0544 31.4383 20.2189 31.5985 20.3353C31.7587 20.4517 31.9519 20.5138 32.1499 20.5126H34.5968L32.6187 21.9564Z" fill="#0000BF"/>
<path d="M30.5 9.61865C27.2994 9.61777 24.2222 10.8533 21.911 13.0672C19.5997 15.2812 18.233 18.3024 18.0963 21.5001C17.9596 24.6977 19.0634 27.8245 21.1773 30.2277C23.2911 32.6308 26.2516 34.1245 29.4406 34.3968C29.7968 34.4249 30.1437 34.4437 30.5 34.4437C30.8187 34.4437 31.1468 34.4249 31.4656 34.3968H31.5593V34.3874C34.7471 34.1152 37.7064 32.622 39.8195 30.2197C41.9325 27.8175 43.0359 24.6918 42.8991 21.4954C42.7624 18.2989 41.3962 15.2789 39.0858 13.0658C36.7754 10.8527 33.6993 9.61771 30.5 9.61865ZM39.6968 27.1687C39.6944 27.1687 39.692 27.1696 39.6902 27.1714C39.6885 27.1732 39.6875 27.1755 39.6875 27.178C38.8489 28.6809 37.6535 29.9545 36.2066 30.8863C34.7597 31.8182 33.1058 32.3799 31.3906 32.5218L31.3812 32.5312H31.3718C30.7856 32.5889 30.1949 32.5857 29.6093 32.5218C27.3431 32.3287 25.2003 31.4073 23.5012 29.8953C21.8021 28.3833 20.638 26.3621 20.183 24.1336C19.7279 21.9052 20.0063 19.5893 20.9766 17.5323C21.9469 15.4752 23.5569 13.7874 25.566 12.7213C27.575 11.6552 29.8752 11.2679 32.1226 11.6175C34.37 11.967 36.4439 13.0345 38.0342 14.6605C39.6246 16.2865 40.6459 18.3835 40.9456 20.6381C41.2453 22.8927 40.8072 25.1837 39.6968 27.1687Z" fill="#0000BF"/>
<path d="M55.7 49.4344L52.175 43.9687C49.6531 40.0781 47.1344 36.1812 44.6187 32.2781C44.8156 32.2031 45.0406 32.1187 45.2656 32.0437C45.7737 31.942 46.2566 31.7404 46.6862 31.4508C47.1159 31.1611 47.4838 30.7891 47.7687 30.3562C47.928 29.8668 47.9893 29.3507 47.9491 28.8376C47.9089 28.3245 47.768 27.8243 47.5344 27.3656C47.314 26.8858 47.1959 26.3654 47.1875 25.8375C47.4197 25.3862 47.742 24.9874 48.1344 24.6656C48.5517 24.3496 48.9024 23.9541 49.1663 23.502C49.4301 23.0499 49.602 22.55 49.6719 22.0312C49.603 21.5134 49.4315 21.0146 49.1675 20.5639C48.9035 20.1131 48.5523 19.7196 48.1344 19.4062C47.7434 19.0793 47.4215 18.6777 47.1875 18.225C47.1959 17.6971 47.314 17.1767 47.5344 16.6969C47.7678 16.2398 47.9087 15.7412 47.9489 15.2296C47.9891 14.718 47.9279 14.2035 47.7687 13.7156C47.483 13.2835 47.1148 12.912 46.6853 12.6224C46.2558 12.3329 45.7733 12.1309 45.2656 12.0281C44.7607 11.9004 44.286 11.6742 43.8687 11.3625C43.6612 10.8854 43.5467 10.3731 43.5312 9.8531C43.5453 9.33644 43.4574 8.82206 43.2724 8.33944C43.0874 7.85682 42.809 7.41545 42.4531 7.0406C41.557 6.51309 40.4887 6.36144 39.4812 6.61873C38.971 6.72405 38.4446 6.72405 37.9344 6.61873C37.5417 6.28978 37.2196 5.88478 36.9875 5.4281C36.7743 4.94969 36.4681 4.51847 36.0866 4.15955C35.7051 3.80063 35.2561 3.52118 34.7656 3.33748C34.2577 3.29381 33.7461 3.35083 33.2603 3.50528C32.7744 3.65972 32.3238 3.90854 31.9344 4.23748C31.5085 4.56203 31.0202 4.79503 30.5 4.92185C29.9798 4.79503 29.4915 4.56203 29.0656 4.23748C28.6775 3.90926 28.2285 3.66082 27.7443 3.50639C27.2601 3.35195 26.7502 3.29455 26.2437 3.33748C25.7512 3.51957 25.3001 3.79833 24.9169 4.15737C24.5337 4.5164 24.2262 4.94846 24.0125 5.4281C23.78 5.88194 23.4616 6.2863 23.075 6.61873C22.5616 6.7239 22.0322 6.7239 21.5187 6.61873C20.5143 6.36132 19.4488 6.51305 18.5562 7.0406C18.1964 7.41499 17.9149 7.85741 17.7281 8.34196C17.5414 8.8265 17.4532 9.34343 17.4687 9.86248C17.4592 10.3812 17.341 10.8922 17.1219 11.3625C16.7131 11.6747 16.2438 11.8982 15.7437 12.0187C14.7159 12.2266 13.8124 12.8334 13.2312 13.7062C13.0719 14.1957 13.0106 14.7117 13.0509 15.2249C13.0911 15.738 13.232 16.2382 13.4656 16.6969C13.686 17.1767 13.8041 17.6971 13.8125 18.225C13.5785 18.6777 13.2566 19.0793 12.8656 19.4062C12.4477 19.7196 12.0964 20.1131 11.8324 20.5639C11.5684 21.0146 11.397 21.5134 11.3281 22.0312C11.398 22.55 11.5698 23.0499 11.8337 23.502C12.0976 23.9541 12.4483 24.3496 12.8656 24.6656C13.258 24.9874 13.5803 25.3862 13.8125 25.8375C13.8041 26.3654 13.686 26.8858 13.4656 27.3656C13.2322 27.8226 13.0913 28.3213 13.0511 28.8329C13.0109 29.3445 13.0721 29.859 13.2312 30.3469C13.5147 30.781 13.8822 31.154 14.3121 31.4438C14.742 31.7336 15.2256 31.9344 15.7344 32.0344C15.95 32.1187 16.175 32.1937 16.3812 32.2781C13.8594 36.1781 11.3406 40.075 8.82498 43.9687L5.29998 49.4344C5.1983 49.5875 5.14485 49.7676 5.14652 49.9514C5.14819 50.1352 5.20491 50.3143 5.30936 50.4656C5.41121 50.6168 5.55527 50.7348 5.72362 50.8048C5.89197 50.8748 6.07718 50.8938 6.25623 50.8594L12.6594 49.6687L14.2156 56.0062C14.2608 56.1833 14.3567 56.3433 14.4917 56.4665C14.6266 56.5898 14.7946 56.6709 14.975 56.7C15.0243 56.7108 15.0745 56.7171 15.125 56.7187C15.2821 56.7198 15.4369 56.6807 15.5747 56.6053C15.7125 56.5298 15.8287 56.4204 15.9125 56.2875L26.0187 40.6406C26.0937 40.6594 26.1594 40.7062 26.2344 40.725C26.3879 40.7616 26.5452 40.7805 26.7031 40.7812C27.5637 40.6864 28.3813 40.3554 29.0656 39.825C29.4915 39.5004 29.9798 39.2674 30.5 39.1406C31.0202 39.2674 31.5085 39.5004 31.9344 39.825C32.3241 40.1565 32.7761 40.4069 33.2639 40.5614C33.7517 40.716 34.2654 40.7716 34.775 40.725C34.85 40.7062 34.9156 40.6594 34.9812 40.6406L45.0875 56.2875C45.1712 56.4204 45.2875 56.5298 45.4253 56.6053C45.5631 56.6807 45.7179 56.7198 45.875 56.7187C45.9255 56.7171 45.9757 56.7108 46.025 56.7C46.2054 56.6709 46.3734 56.5898 46.5083 56.4665C46.6432 56.3433 46.7392 56.1833 46.7844 56.0062L48.3406 49.6687L54.7437 50.8594C54.9228 50.8928 55.1076 50.8733 55.2758 50.8034C55.4439 50.7335 55.5881 50.6161 55.6906 50.4656C55.7951 50.3143 55.8518 50.1352 55.8534 49.9514C55.8551 49.7676 55.8017 49.5875 55.7 49.4344ZM15.5187 53.4375L14.2719 48.3656C14.2158 48.1329 14.073 47.9305 13.8725 47.7998C13.6721 47.6691 13.4292 47.6199 13.1937 47.6625L8.05623 48.6187L10.4 44.9906C12.7437 41.3531 15.0937 37.7156 17.45 34.0781C17.4602 34.1212 17.4664 34.1651 17.4687 34.2094C17.4546 34.726 17.5426 35.2404 17.7276 35.723C17.9126 36.2056 18.191 36.647 18.5469 37.0219C19.4431 37.5489 20.5112 37.7005 21.5187 37.4437C22.029 37.3384 22.5554 37.3384 23.0656 37.4437C23.4605 37.7705 23.783 38.176 24.0125 38.6344C24.1906 38.9062 24.3687 39.1781 24.5562 39.4406L15.5187 53.4375ZM34.625 38.7094C34.5492 38.7953 34.4522 38.86 34.3437 38.8969C34.0812 38.9531 33.3875 38.5312 32.9375 38.2406C32.2326 37.6933 31.3879 37.3554 30.5 37.2656C29.6121 37.3554 28.7674 37.6933 28.0625 38.2406C27.6125 38.5312 26.9187 38.9625 26.6656 38.9062C26.5507 38.8622 26.4478 38.7915 26.3656 38.7C26.0753 38.3751 25.8207 38.0199 25.6062 37.6406C25.2183 36.8668 24.6247 36.2148 23.8906 35.7562C23.4644 35.5622 22.9992 35.4692 22.5312 35.4844C22.1235 35.4923 21.7166 35.5236 21.3125 35.5781C20.7312 35.6437 19.9437 35.7375 19.7187 35.5594C19.4937 35.3812 19.4 34.5844 19.3344 34.0031C19.3229 33.1252 19.0664 32.268 18.5937 31.5281C18.5191 31.4345 18.4342 31.3496 18.3406 31.275C18.3048 31.2446 18.2673 31.2165 18.2281 31.1906L18.2187 31.1812H18.2094C17.6489 30.7713 17.0205 30.4635 16.3531 30.2719C15.8 30.075 15.05 29.8125 14.9187 29.5312C14.7875 29.2687 15.05 28.5281 15.2375 27.9844C15.613 27.1871 15.7529 26.2991 15.6406 25.425C15.3653 24.6039 14.8611 23.8786 14.1875 23.3344C13.775 22.9219 13.2031 22.35 13.2031 22.0312C13.2031 21.7125 13.775 21.1406 14.1875 20.7281C14.8611 20.1839 15.3653 19.4586 15.6406 18.6375C15.7529 17.7634 15.613 16.8754 15.2375 16.0781C15.05 15.5344 14.7875 14.7937 14.9187 14.5219C15.05 14.25 15.8094 13.9875 16.3625 13.7906C17.2076 13.5919 17.9784 13.1561 18.5844 12.5344C19.064 11.8007 19.3242 10.9453 19.3344 10.0687C19.4 9.48748 19.4844 8.69998 19.7187 8.51248C19.9531 8.32498 20.7312 8.41873 21.3125 8.48435C22.1716 8.66737 23.0648 8.60565 23.8906 8.30623C24.6269 7.85028 25.2212 7.1976 25.6062 6.42185C25.9156 5.9156 26.3469 5.23123 26.6562 5.1656C26.9187 5.09998 27.6125 5.5406 28.0625 5.82185C28.7674 6.3692 29.6121 6.70708 30.5 6.79685C31.3879 6.70708 32.2326 6.3692 32.9375 5.82185C33.3875 5.5406 34.0719 5.10935 34.3437 5.1656C34.6531 5.23123 35.0844 5.9156 35.3937 6.42185C35.7788 7.1976 36.373 7.85028 37.1094 8.30623C37.9351 8.60565 38.8284 8.66737 39.6875 8.48435C40.2687 8.41873 41.0562 8.32498 41.2812 8.5031C41.5062 8.68123 41.6 9.4781 41.6656 10.0594C41.677 10.9373 41.9336 11.7945 42.4062 12.5344C43.0211 13.156 43.797 13.5943 44.6469 13.8C45.2 13.9875 45.95 14.25 46.0812 14.5312C46.2125 14.7937 45.95 15.5344 45.7625 16.0781C45.3869 16.8754 45.2471 17.7634 45.3594 18.6375C45.6347 19.4586 46.1388 20.1839 46.8125 20.7281C47.225 21.1406 47.7969 21.7125 47.7969 22.0312C47.7969 22.35 47.225 22.9219 46.8125 23.3344C46.1388 23.8786 45.6347 24.6039 45.3594 25.425C45.2471 26.2991 45.3869 27.1871 45.7625 27.9844C45.95 28.5281 46.2125 29.2687 46.0812 29.5406C45.95 29.8125 45.1906 30.0844 44.6469 30.2719C43.9448 30.4637 43.2861 30.7883 42.7062 31.2281C42.6023 31.321 42.5052 31.4213 42.4156 31.5281C41.9359 32.2618 41.6757 33.1172 41.6656 33.9937C41.6 34.575 41.5156 35.3625 41.2812 35.55C41.0469 35.7375 40.2687 35.6437 39.6875 35.5781C38.8287 35.3904 37.9342 35.4522 37.1094 35.7562C36.3753 36.2148 35.7817 36.8668 35.3937 37.6406C35.1771 38.0237 34.9193 38.3821 34.625 38.7094ZM47.8062 47.6625C47.5707 47.6199 47.3279 47.6691 47.1274 47.7998C46.927 47.9305 46.7841 48.1329 46.7281 48.3656L45.4812 53.4375L36.4437 39.4406C36.6312 39.1781 36.8094 38.9062 36.9875 38.6344C37.2172 38.1788 37.536 37.7739 37.925 37.4437C38.4384 37.3386 38.9678 37.3386 39.4812 37.4437C40.4856 37.7011 41.5511 37.5494 42.4437 37.0219C42.8027 36.6488 43.0838 36.2079 43.2705 35.725C43.4572 35.2422 43.5459 34.7269 43.5312 34.2094C43.5329 34.1651 43.5392 34.1211 43.55 34.0781C45.9031 37.7156 48.2531 41.3531 50.6 44.9906L52.9437 48.6187L47.8062 47.6625Z" fill="#0000BF"/>
</svg>
