<svg width="349" height="209" viewBox="0 0 349 209" fill="none" xmlns="http://www.w3.org/2000/svg">
<rect width="116" height="125" transform="translate(0 84)" fill="url(#paint0_linear_159_1550)" fill-opacity="0.8"/>
<path d="M18.9648 126.293C17.5391 126.293 16.2646 126.029 15.1416 125.502C14.0283 124.965 13.1396 124.228 12.4756 123.29C11.8213 122.353 11.4746 121.278 11.4355 120.067H15.2734C15.332 120.956 15.7129 121.684 16.416 122.25C17.1289 122.816 17.9785 123.1 18.9648 123.1C19.7461 123.1 20.4346 122.924 21.0303 122.572C21.626 122.211 22.0947 121.718 22.4365 121.093C22.7881 120.458 22.9639 119.735 22.9639 118.925C22.9639 118.095 22.7881 117.362 22.4365 116.728C22.085 116.083 21.6016 115.58 20.9863 115.219C20.3711 114.848 19.6631 114.662 18.8623 114.662C18.1982 114.662 17.5537 114.789 16.9287 115.043C16.3037 115.287 15.8057 115.609 15.4346 116.01L11.8457 115.424L12.9883 104.174H25.6592V107.484H16.2695L15.6396 113.271H15.7568C16.167 112.782 16.7383 112.387 17.4707 112.084C18.2129 111.771 19.0283 111.615 19.917 111.615C21.2451 111.615 22.4219 111.928 23.4473 112.553C24.4824 113.168 25.2979 114.018 25.8936 115.102C26.4893 116.186 26.7871 117.431 26.7871 118.837C26.7871 120.272 26.4551 121.557 25.791 122.689C25.127 123.812 24.209 124.696 23.0371 125.341C21.8652 125.976 20.5078 126.293 18.9648 126.293ZM35.6934 124.711V109.96H39.0332V124.711H35.6934ZM29.9951 119.013V115.658H44.7314V119.013H29.9951Z" fill="white"/>
<path d="M10.0547 195V193.667L10.3486 193.66C10.7542 193.646 11.0732 193.507 11.3057 193.243C11.5381 192.979 11.709 192.553 11.8184 191.965C11.9277 191.372 12.0007 190.586 12.0371 189.606L12.208 184.814H18.6475V195H17.1299V186.12H13.6572L13.4932 190.01C13.4521 191.099 13.3428 192.015 13.165 192.758C12.9919 193.496 12.6956 194.054 12.2764 194.433C11.8571 194.811 11.2624 195 10.4922 195H10.0547ZM23.3336 195.157C22.5862 195.157 21.9391 194.995 21.3922 194.672C20.8454 194.348 20.4238 193.893 20.1276 193.305C19.8359 192.712 19.6901 192.022 19.6901 191.233C19.6901 190.45 19.8336 189.759 20.1207 189.162C20.4124 188.565 20.8203 188.1 21.3444 187.768C21.873 187.43 22.4928 187.262 23.2037 187.262C23.6367 187.262 24.056 187.332 24.4616 187.474C24.8672 187.615 25.2317 187.838 25.5553 188.144C25.8789 188.449 26.1341 188.845 26.3209 189.333C26.5123 189.821 26.608 190.409 26.608 191.097V191.63H20.5309V190.516H25.8424L25.152 190.885C25.152 190.415 25.0791 190.001 24.9332 189.641C24.7874 189.281 24.5687 189 24.277 188.8C23.9899 188.595 23.6321 188.492 23.2037 188.492C22.7754 188.492 22.4085 188.595 22.1032 188.8C21.8024 189.005 21.5722 189.276 21.4127 189.613C21.2532 189.951 21.1735 190.32 21.1735 190.721V191.479C21.1735 192.004 21.2646 192.448 21.4469 192.812C21.6292 193.177 21.8821 193.455 22.2057 193.646C22.5338 193.838 22.9144 193.934 23.3473 193.934C23.6299 193.934 23.8851 193.893 24.1129 193.811C24.3454 193.729 24.5459 193.605 24.7145 193.441C24.8831 193.277 25.0107 193.075 25.0973 192.833L26.5055 193.1C26.3916 193.51 26.1911 193.87 25.9039 194.18C25.6168 194.49 25.2545 194.731 24.817 194.904C24.3841 195.073 23.8896 195.157 23.3336 195.157ZM26.8304 188.643V187.357H33.263V188.643H30.7815V195H29.3255V188.643H26.8304ZM42.2662 190.536V191.821H38.1304V190.536H42.2662ZM38.5406 187.357V195H37.0982V187.357H38.5406ZM43.3052 187.357V195H41.856V187.357H43.3052ZM46.802 195.164C46.3189 195.164 45.8814 195.075 45.4895 194.897C45.0975 194.715 44.7876 194.451 44.5598 194.104C44.3319 193.758 44.218 193.337 44.218 192.84C44.218 192.407 44.3 192.054 44.4641 191.78C44.6327 191.502 44.8583 191.281 45.1408 191.117C45.4234 190.953 45.7378 190.83 46.0842 190.748C46.4305 190.666 46.786 190.602 47.1506 190.557C47.6109 190.507 47.9823 190.463 48.2648 190.427C48.5474 190.39 48.7525 190.333 48.8801 190.256C49.0122 190.174 49.0783 190.044 49.0783 189.866V189.832C49.0783 189.399 48.9553 189.064 48.7092 188.827C48.4676 188.59 48.1076 188.472 47.6291 188.472C47.1324 188.472 46.7382 188.581 46.4465 188.8C46.1594 189.014 45.9611 189.258 45.8518 189.531L44.4504 189.21C44.619 188.745 44.8628 188.371 45.1818 188.089C45.5054 187.802 45.8745 187.592 46.2893 187.46C46.7085 187.328 47.146 187.262 47.6018 187.262C47.9071 187.262 48.2307 187.298 48.5725 187.371C48.9143 187.439 49.2355 187.569 49.5363 187.761C49.8417 187.948 50.09 188.216 50.2814 188.567C50.4729 188.918 50.5686 189.372 50.5686 189.928V195H49.1125V193.954H49.0578C48.9667 194.141 48.8231 194.328 48.6271 194.515C48.4357 194.701 48.1896 194.856 47.8889 194.979C47.5881 195.103 47.2258 195.164 46.802 195.164ZM47.1232 193.975C47.538 193.975 47.8911 193.895 48.1828 193.735C48.4745 193.571 48.6978 193.357 48.8527 193.093C49.0077 192.828 49.0852 192.548 49.0852 192.252V191.261C49.0305 191.311 48.9279 191.359 48.7775 191.404C48.6271 191.45 48.4562 191.489 48.2648 191.521C48.0734 191.552 47.8866 191.582 47.7043 191.609C47.522 191.632 47.3693 191.65 47.2463 191.664C46.9592 191.705 46.6971 191.769 46.4602 191.855C46.2232 191.938 46.0318 192.061 45.8859 192.225C45.7447 192.384 45.674 192.596 45.674 192.86C45.674 193.229 45.8107 193.507 46.0842 193.694C46.3576 193.881 46.704 193.975 47.1232 193.975ZM54.8345 197.857V187.357H56.27V188.602H56.393C56.4842 188.442 56.6095 188.257 56.769 188.048C56.9331 187.838 57.161 187.656 57.4526 187.501C57.7443 187.341 58.1248 187.262 58.5942 187.262C59.2095 187.262 59.7563 187.417 60.2348 187.727C60.7179 188.036 61.0985 188.485 61.3764 189.073C61.6544 189.661 61.7934 190.37 61.7934 191.199C61.7934 192.02 61.6567 192.726 61.3833 193.318C61.1098 193.906 60.7316 194.36 60.2485 194.679C59.77 194.993 59.2208 195.15 58.6011 195.15C58.1408 195.15 57.7625 195.073 57.4663 194.918C57.1746 194.758 56.9445 194.574 56.7759 194.364C56.6118 194.155 56.4842 193.97 56.393 193.811H56.311V197.857H54.8345ZM58.2798 193.886C58.7218 193.886 59.091 193.767 59.3872 193.53C59.6834 193.293 59.9067 192.972 60.0571 192.566C60.2121 192.156 60.2895 191.696 60.2895 191.186C60.2895 190.68 60.2143 190.226 60.0639 189.825C59.9136 189.424 59.6902 189.107 59.394 188.875C59.0978 188.643 58.7264 188.526 58.2798 188.526C57.8468 188.526 57.4822 188.638 57.186 188.861C56.8898 189.08 56.6642 189.39 56.5093 189.791C56.3589 190.188 56.2837 190.652 56.2837 191.186C56.2837 191.719 56.3611 192.188 56.5161 192.594C56.671 192.999 56.8966 193.316 57.1929 193.544C57.4936 193.772 57.8559 193.886 58.2798 193.886ZM63.8478 189.996H66.0695C66.9991 189.992 67.7146 190.222 68.2159 190.687C68.7218 191.151 68.977 191.751 68.9816 192.484C68.9816 192.963 68.8676 193.391 68.6398 193.77C68.4119 194.148 68.0815 194.449 67.6486 194.672C67.2156 194.891 66.6892 195 66.0695 195H62.7335V187.357H64.1759V193.715H66.0695C66.4933 193.715 66.8419 193.605 67.1154 193.387C67.3888 193.163 67.5278 192.876 67.5323 192.525C67.5278 192.156 67.3888 191.855 67.1154 191.623C66.8419 191.391 66.4933 191.277 66.0695 191.281H63.8478V189.996ZM70.0685 195V187.357H71.545V195H70.0685ZM77.988 190.536V191.821H73.8523V190.536H77.988ZM74.2625 187.357V195H72.8201V187.357H74.2625ZM79.0271 187.357V195H77.5779V187.357H79.0271ZM80.309 195V187.357H81.7855V190.563H82.5033L85.0258 187.357H86.8578L83.9115 191.083L86.8988 195H85.0531L82.7494 191.944H81.7855V195H80.309ZM90.293 195.157C89.5456 195.157 88.8985 194.995 88.3516 194.672C87.8047 194.348 87.3832 193.893 87.087 193.305C86.7953 192.712 86.6495 192.022 86.6495 191.233C86.6495 190.45 86.793 189.759 87.0801 189.162C87.3718 188.565 87.7797 188.1 88.3037 187.768C88.8324 187.43 89.4522 187.262 90.1631 187.262C90.5961 187.262 91.0153 187.332 91.4209 187.474C91.8265 187.615 92.1911 187.838 92.5147 188.144C92.8383 188.449 93.0935 188.845 93.2803 189.333C93.4717 189.821 93.5674 190.409 93.5674 191.097V191.63H87.4903V190.516H92.8018L92.1114 190.885C92.1114 190.415 92.0384 190.001 91.8926 189.641C91.7468 189.281 91.528 189 91.2364 188.8C90.9493 188.595 90.5915 188.492 90.1631 188.492C89.7347 188.492 89.3679 188.595 89.0625 188.8C88.7618 189.005 88.5316 189.276 88.3721 189.613C88.2126 189.951 88.1329 190.32 88.1329 190.721V191.479C88.1329 192.004 88.224 192.448 88.4063 192.812C88.5886 193.177 88.8415 193.455 89.1651 193.646C89.4932 193.838 89.8737 193.934 90.3067 193.934C90.5892 193.934 90.8444 193.893 91.0723 193.811C91.3047 193.729 91.5052 193.605 91.6739 193.441C91.8425 193.277 91.9701 193.075 92.0567 192.833L93.4649 193.1C93.3509 193.51 93.1504 193.87 92.8633 194.18C92.5762 194.49 92.2139 194.731 91.7764 194.904C91.3435 195.073 90.849 195.157 90.293 195.157Z" fill="white"/>
<g clip-path="url(#clip0_159_1550)">
<rect width="117" height="209" transform="translate(116)" fill="url(#paint1_linear_159_1550)" fill-opacity="0.8"/>
<path d="M135.961 20.1738V42H132.035V24.0264H131.903L126.806 27.293V23.6602L132.226 20.1738H135.961ZM146.991 42.293C145.224 42.293 143.71 41.8535 142.45 40.9746C141.2 40.0859 140.243 38.8115 139.579 37.1514C138.915 35.4814 138.583 33.4648 138.583 31.1016C138.583 28.7383 138.915 26.7217 139.579 25.0518C140.243 23.3721 141.2 22.0928 142.45 21.2139C143.71 20.3252 145.224 19.8809 146.991 19.8809C148.749 19.8809 150.258 20.3252 151.518 21.2139C152.777 22.1025 153.739 23.3818 154.403 25.0518C155.067 26.7217 155.399 28.7383 155.399 31.1016C155.399 33.4648 155.067 35.4814 154.403 37.1514C153.739 38.8115 152.782 40.0859 151.532 40.9746C150.282 41.8535 148.769 42.293 146.991 42.293ZM146.991 38.9824C147.938 38.9824 148.739 38.6748 149.394 38.0596C150.058 37.4443 150.561 36.5508 150.902 35.3789C151.254 34.1973 151.43 32.7715 151.43 31.1016C151.43 29.4219 151.254 27.9912 150.902 26.8096C150.561 25.6279 150.058 24.7295 149.394 24.1143C148.739 23.4893 147.938 23.1768 146.991 23.1768C145.565 23.1768 144.467 23.8701 143.695 25.2568C142.934 26.6338 142.553 28.582 142.553 31.1016C142.553 32.7715 142.724 34.1973 143.065 35.3789C143.407 36.5508 143.91 37.4443 144.574 38.0596C145.238 38.6748 146.044 38.9824 146.991 38.9824ZM164.291 40.7109V25.96H167.631V40.7109H164.291ZM158.593 35.0127V31.6582H173.329V35.0127H158.593Z" fill="#0000BF"/>
<path d="M131.072 177.137C130.197 177.137 129.413 176.927 128.721 176.508C128.028 176.089 127.483 175.489 127.087 174.71C126.69 173.926 126.492 172.994 126.492 171.914C126.492 170.825 126.69 169.891 127.087 169.111C127.488 168.327 128.033 167.726 128.721 167.307C129.413 166.887 130.197 166.678 131.072 166.678C131.61 166.678 132.114 166.755 132.583 166.91C133.057 167.065 133.481 167.291 133.854 167.587C134.228 167.883 134.536 168.245 134.777 168.674C135.023 169.102 135.188 169.588 135.27 170.13H133.725C133.665 169.797 133.554 169.506 133.39 169.255C133.23 169 133.032 168.785 132.795 168.612C132.562 168.435 132.3 168.302 132.009 168.216C131.722 168.125 131.416 168.079 131.093 168.079C130.509 168.079 129.983 168.227 129.514 168.523C129.049 168.815 128.682 169.248 128.413 169.822C128.149 170.392 128.017 171.089 128.017 171.914C128.017 172.743 128.151 173.443 128.42 174.013C128.689 174.578 129.056 175.006 129.521 175.298C129.985 175.59 130.507 175.735 131.086 175.735C131.41 175.735 131.715 175.692 132.002 175.605C132.289 175.519 132.551 175.389 132.788 175.216C133.025 175.043 133.223 174.833 133.383 174.587C133.547 174.336 133.661 174.047 133.725 173.719H135.27C135.192 174.225 135.035 174.687 134.798 175.106C134.561 175.521 134.258 175.881 133.889 176.187C133.52 176.487 133.098 176.722 132.624 176.891C132.15 177.055 131.633 177.137 131.072 177.137ZM139.484 177.157C138.769 177.157 138.142 176.993 137.604 176.665C137.071 176.337 136.656 175.877 136.36 175.284C136.068 174.692 135.922 174.004 135.922 173.22C135.922 172.427 136.068 171.734 136.36 171.142C136.656 170.545 137.071 170.082 137.604 169.754C138.142 169.426 138.769 169.262 139.484 169.262C140.204 169.262 140.831 169.426 141.364 169.754C141.897 170.082 142.312 170.545 142.608 171.142C142.904 171.734 143.052 172.427 143.052 173.22C143.052 174.004 142.904 174.692 142.608 175.284C142.312 175.877 141.897 176.337 141.364 176.665C140.831 176.993 140.204 177.157 139.484 177.157ZM139.484 175.906C139.953 175.906 140.341 175.783 140.646 175.537C140.951 175.291 141.177 174.965 141.323 174.56C141.473 174.149 141.548 173.703 141.548 173.22C141.548 172.728 141.473 172.276 141.323 171.866C141.177 171.456 140.951 171.128 140.646 170.882C140.341 170.636 139.953 170.513 139.484 170.513C139.019 170.513 138.634 170.636 138.329 170.882C138.028 171.128 137.802 171.456 137.652 171.866C137.502 172.276 137.426 172.728 137.426 173.22C137.426 173.703 137.502 174.149 137.652 174.56C137.802 174.965 138.028 175.291 138.329 175.537C138.634 175.783 139.019 175.906 139.484 175.906ZM143.063 170.643V169.357H149.495V170.643H147.014V177H145.558V170.643H143.063ZM150.353 179.857V169.357H151.789V170.602H151.912C152.003 170.442 152.129 170.257 152.288 170.048C152.452 169.838 152.68 169.656 152.972 169.501C153.263 169.341 153.644 169.262 154.113 169.262C154.728 169.262 155.275 169.417 155.754 169.727C156.237 170.036 156.617 170.485 156.895 171.073C157.173 171.661 157.312 172.37 157.312 173.199C157.312 174.02 157.176 174.726 156.902 175.318C156.629 175.906 156.251 176.36 155.767 176.679C155.289 176.993 154.74 177.15 154.12 177.15C153.66 177.15 153.281 177.073 152.985 176.918C152.694 176.758 152.463 176.574 152.295 176.364C152.131 176.155 152.003 175.97 151.912 175.811H151.83V179.857H150.353ZM153.799 175.886C154.241 175.886 154.61 175.767 154.906 175.53C155.202 175.293 155.426 174.972 155.576 174.566C155.731 174.156 155.809 173.696 155.809 173.186C155.809 172.68 155.733 172.226 155.583 171.825C155.433 171.424 155.209 171.107 154.913 170.875C154.617 170.643 154.245 170.526 153.799 170.526C153.366 170.526 153.001 170.638 152.705 170.861C152.409 171.08 152.183 171.39 152.028 171.791C151.878 172.188 151.803 172.652 151.803 173.186C151.803 173.719 151.88 174.188 152.035 174.594C152.19 174.999 152.416 175.316 152.712 175.544C153.013 175.772 153.375 175.886 153.799 175.886ZM158.922 179.857C158.699 179.862 158.496 179.846 158.314 179.81C158.136 179.778 158 179.739 157.904 179.693L158.266 178.483L158.369 178.511C158.747 178.606 159.066 178.6 159.326 178.49C159.59 178.385 159.811 178.091 159.989 177.608L160.173 177.103L157.384 169.357H158.977L160.905 175.291H160.987L162.921 169.357H164.514L161.37 178.012C161.224 178.413 161.039 178.75 160.816 179.023C160.593 179.301 160.324 179.509 160.009 179.646C159.699 179.787 159.337 179.857 158.922 179.857ZM163.814 179.201V175.715H164.429C164.588 175.569 164.725 175.396 164.839 175.195C164.953 174.99 165.046 174.749 165.119 174.471C165.197 174.188 165.263 173.862 165.318 173.493C165.372 173.124 165.42 172.698 165.461 172.215L165.7 169.357H170.889V175.715H172.065V179.201H170.609V177H165.29V179.201H163.814ZM166.029 175.715H169.44V170.629H167.027L166.862 172.215C166.794 173.021 166.701 173.719 166.582 174.307C166.468 174.89 166.284 175.359 166.029 175.715ZM177.961 172.536V173.821H173.825V172.536H177.961ZM174.235 169.357V177H172.793V169.357H174.235ZM179 169.357V177H177.551V169.357H179ZM181.724 174.908L185.094 169.357H186.694V177H185.245V171.442L181.888 177H180.282V169.357H181.724V174.908ZM187.976 177V169.357H189.452V172.563H190.17L192.693 169.357H194.525L191.578 173.083L194.566 177H192.72L190.416 173.944H189.452V177H187.976ZM197.878 177.157C197.162 177.157 196.536 176.993 195.998 176.665C195.465 176.337 195.05 175.877 194.754 175.284C194.462 174.692 194.316 174.004 194.316 173.22C194.316 172.427 194.462 171.734 194.754 171.142C195.05 170.545 195.465 170.082 195.998 169.754C196.536 169.426 197.162 169.262 197.878 169.262C198.598 169.262 199.224 169.426 199.758 169.754C200.291 170.082 200.705 170.545 201.002 171.142C201.298 171.734 201.446 172.427 201.446 173.22C201.446 174.004 201.298 174.692 201.002 175.284C200.705 175.877 200.291 176.337 199.758 176.665C199.224 176.993 198.598 177.157 197.878 177.157ZM197.878 175.906C198.347 175.906 198.734 175.783 199.04 175.537C199.345 175.291 199.571 174.965 199.717 174.56C199.867 174.149 199.942 173.703 199.942 173.22C199.942 172.728 199.867 172.276 199.717 171.866C199.571 171.456 199.345 171.128 199.04 170.882C198.734 170.636 198.347 170.513 197.878 170.513C197.413 170.513 197.028 170.636 196.722 170.882C196.422 171.128 196.196 171.456 196.046 171.866C195.895 172.276 195.82 172.728 195.82 173.22C195.82 173.703 195.895 174.149 196.046 174.56C196.196 174.965 196.422 175.291 196.722 175.537C197.028 175.783 197.413 175.906 197.878 175.906ZM202.379 177V169.357H205.537C206.399 169.362 207.082 169.549 207.588 169.918C208.094 170.283 208.345 170.779 208.34 171.408C208.345 171.855 208.204 172.208 207.916 172.468C207.629 172.723 207.253 172.898 206.788 172.994C207.126 173.031 207.436 173.131 207.718 173.295C208.005 173.459 208.235 173.68 208.409 173.958C208.586 174.231 208.675 174.557 208.675 174.936C208.675 175.341 208.568 175.701 208.354 176.016C208.144 176.326 207.843 176.567 207.452 176.74C207.06 176.913 206.583 177 206.023 177H202.379ZM203.774 175.749H206.023C206.387 175.754 206.675 175.669 206.884 175.496C207.094 175.318 207.196 175.079 207.192 174.778C207.196 174.423 207.094 174.145 206.884 173.944C206.675 173.739 206.387 173.637 206.023 173.637H203.774V175.749ZM203.774 172.55H205.551C205.97 172.545 206.299 172.456 206.536 172.283C206.777 172.105 206.896 171.866 206.891 171.565C206.896 171.269 206.777 171.039 206.536 170.875C206.294 170.706 205.961 170.622 205.537 170.622H203.774V172.55ZM126.711 195V187.357H129.869C130.73 187.362 131.414 187.549 131.92 187.918C132.426 188.283 132.676 188.779 132.672 189.408C132.676 189.855 132.535 190.208 132.248 190.468C131.961 190.723 131.585 190.898 131.12 190.994C131.457 191.031 131.767 191.131 132.05 191.295C132.337 191.459 132.567 191.68 132.74 191.958C132.918 192.231 133.007 192.557 133.007 192.936C133.007 193.341 132.9 193.701 132.686 194.016C132.476 194.326 132.175 194.567 131.783 194.74C131.391 194.913 130.915 195 130.354 195H126.711ZM128.105 193.749H130.354C130.719 193.754 131.006 193.669 131.216 193.496C131.425 193.318 131.528 193.079 131.523 192.778C131.528 192.423 131.425 192.145 131.216 191.944C131.006 191.739 130.719 191.637 130.354 191.637H128.105V193.749ZM128.105 190.55H129.883C130.302 190.545 130.63 190.456 130.867 190.283C131.109 190.105 131.227 189.866 131.223 189.565C131.227 189.269 131.109 189.039 130.867 188.875C130.626 188.706 130.293 188.622 129.869 188.622H128.105V190.55ZM136.89 187.357H138.332V193.715H140.978V187.357H142.434V193.715H145.073V187.357H146.535V195H136.89V187.357ZM146.86 188.643V187.357H153.293V188.643H150.811V195H149.355V188.643H146.86ZM156.01 195.164C155.527 195.164 155.09 195.075 154.698 194.897C154.306 194.715 153.996 194.451 153.768 194.104C153.54 193.758 153.426 193.337 153.426 192.84C153.426 192.407 153.508 192.054 153.672 191.78C153.841 191.502 154.067 191.281 154.349 191.117C154.632 190.953 154.946 190.83 155.293 190.748C155.639 190.666 155.994 190.602 156.359 190.557C156.819 190.507 157.191 190.463 157.473 190.427C157.756 190.39 157.961 190.333 158.088 190.256C158.221 190.174 158.287 190.044 158.287 189.866V189.832C158.287 189.399 158.164 189.064 157.918 188.827C157.676 188.59 157.316 188.472 156.837 188.472C156.341 188.472 155.947 188.581 155.655 188.8C155.368 189.014 155.169 189.258 155.06 189.531L153.659 189.21C153.827 188.745 154.071 188.371 154.39 188.089C154.714 187.802 155.083 187.592 155.498 187.46C155.917 187.328 156.354 187.262 156.81 187.262C157.115 187.262 157.439 187.298 157.781 187.371C158.123 187.439 158.444 187.569 158.745 187.761C159.05 187.948 159.298 188.216 159.49 188.567C159.681 188.918 159.777 189.372 159.777 189.928V195H158.321V193.954H158.266C158.175 194.141 158.031 194.328 157.836 194.515C157.644 194.701 157.398 194.856 157.097 194.979C156.796 195.103 156.434 195.164 156.01 195.164ZM156.332 193.975C156.746 193.975 157.1 193.895 157.391 193.735C157.683 193.571 157.906 193.357 158.061 193.093C158.216 192.828 158.294 192.548 158.294 192.252V191.261C158.239 191.311 158.136 191.359 157.986 191.404C157.836 191.45 157.665 191.489 157.473 191.521C157.282 191.552 157.095 191.582 156.913 191.609C156.73 191.632 156.578 191.65 156.455 191.664C156.168 191.705 155.905 191.769 155.669 191.855C155.432 191.938 155.24 192.061 155.094 192.225C154.953 192.384 154.882 192.596 154.882 192.86C154.882 193.229 155.019 193.507 155.293 193.694C155.566 193.881 155.912 193.975 156.332 193.975ZM160.115 188.643V187.357H166.548V188.643H164.067V195H162.611V188.643H160.115ZM170.339 195.157C169.591 195.157 168.944 194.995 168.397 194.672C167.85 194.348 167.429 193.893 167.133 193.305C166.841 192.712 166.695 192.022 166.695 191.233C166.695 190.45 166.839 189.759 167.126 189.162C167.417 188.565 167.825 188.1 168.349 187.768C168.878 187.43 169.498 187.262 170.209 187.262C170.642 187.262 171.061 187.332 171.467 187.474C171.872 187.615 172.237 187.838 172.56 188.144C172.884 188.449 173.139 188.845 173.326 189.333C173.517 189.821 173.613 190.409 173.613 191.097V191.63H167.536V190.516H172.847L172.157 190.885C172.157 190.415 172.084 190.001 171.938 189.641C171.792 189.281 171.574 189 171.282 188.8C170.995 188.595 170.637 188.492 170.209 188.492C169.78 188.492 169.414 188.595 169.108 188.8C168.807 189.005 168.577 189.276 168.418 189.613C168.258 189.951 168.179 190.32 168.179 190.721V191.479C168.179 192.004 168.27 192.448 168.452 192.812C168.634 193.177 168.887 193.455 169.211 193.646C169.539 193.838 169.919 193.934 170.352 193.934C170.635 193.934 170.89 193.893 171.118 193.811C171.35 193.729 171.551 193.605 171.72 193.441C171.888 193.277 172.016 193.075 172.102 192.833L173.511 193.1C173.397 193.51 173.196 193.87 172.909 194.18C172.622 194.49 172.26 194.731 171.822 194.904C171.389 195.073 170.895 195.157 170.339 195.157Z" fill="#0000BF"/>
</g>
<rect width="116" height="160" transform="translate(233 49)" fill="url(#paint2_linear_159_1550)" fill-opacity="0.8"/>
<path d="M251.965 91.293C250.539 91.293 249.265 91.0293 248.142 90.502C247.028 89.9648 246.14 89.2275 245.476 88.29C244.821 87.3525 244.475 86.2783 244.436 85.0674H248.273C248.332 85.9561 248.713 86.6836 249.416 87.25C250.129 87.8164 250.979 88.0996 251.965 88.0996C252.746 88.0996 253.435 87.9238 254.03 87.5723C254.626 87.2109 255.095 86.7178 255.437 86.0928C255.788 85.458 255.964 84.7354 255.964 83.9248C255.964 83.0947 255.788 82.3623 255.437 81.7275C255.085 81.083 254.602 80.5801 253.986 80.2188C253.371 79.8477 252.663 79.6621 251.862 79.6621C251.198 79.6621 250.554 79.7891 249.929 80.043C249.304 80.2871 248.806 80.6094 248.435 81.0098L244.846 80.4238L245.988 69.1738H258.659V72.4844H249.27L248.64 78.2705H248.757C249.167 77.7822 249.738 77.3867 250.471 77.084C251.213 76.7715 252.028 76.6152 252.917 76.6152C254.245 76.6152 255.422 76.9277 256.447 77.5527C257.482 78.168 258.298 79.0176 258.894 80.1016C259.489 81.1855 259.787 82.4307 259.787 83.8369C259.787 85.2725 259.455 86.5566 258.791 87.6895C258.127 88.8125 257.209 89.6963 256.037 90.3408C254.865 90.9756 253.508 91.293 251.965 91.293ZM270.29 91.293C268.522 91.293 267.009 90.8535 265.749 89.9746C264.499 89.0859 263.542 87.8115 262.878 86.1514C262.214 84.4814 261.882 82.4648 261.882 80.1016C261.882 77.7383 262.214 75.7217 262.878 74.0518C263.542 72.3721 264.499 71.0928 265.749 70.2139C267.009 69.3252 268.522 68.8809 270.29 68.8809C272.048 68.8809 273.557 69.3252 274.816 70.2139C276.076 71.1025 277.038 72.3818 277.702 74.0518C278.366 75.7217 278.698 77.7383 278.698 80.1016C278.698 82.4648 278.366 84.4814 277.702 86.1514C277.038 87.8115 276.081 89.0859 274.831 89.9746C273.581 90.8535 272.067 91.293 270.29 91.293ZM270.29 87.9824C271.237 87.9824 272.038 87.6748 272.692 87.0596C273.356 86.4443 273.859 85.5508 274.201 84.3789C274.553 83.1973 274.729 81.7715 274.729 80.1016C274.729 78.4219 274.553 76.9912 274.201 75.8096C273.859 74.6279 273.356 73.7295 272.692 73.1143C272.038 72.4893 271.237 72.1768 270.29 72.1768C268.864 72.1768 267.766 72.8701 266.994 74.2568C266.232 75.6338 265.852 77.582 265.852 80.1016C265.852 81.7715 266.022 83.1973 266.364 84.3789C266.706 85.5508 267.209 86.4443 267.873 87.0596C268.537 87.6748 269.343 87.9824 270.29 87.9824ZM289.187 91.293C287.419 91.293 285.905 90.8535 284.646 89.9746C283.396 89.0859 282.438 87.8115 281.774 86.1514C281.11 84.4814 280.778 82.4648 280.778 80.1016C280.778 77.7383 281.11 75.7217 281.774 74.0518C282.438 72.3721 283.396 71.0928 284.646 70.2139C285.905 69.3252 287.419 68.8809 289.187 68.8809C290.944 68.8809 292.453 69.3252 293.713 70.2139C294.973 71.1025 295.935 72.3818 296.599 74.0518C297.263 75.7217 297.595 77.7383 297.595 80.1016C297.595 82.4648 297.263 84.4814 296.599 86.1514C295.935 87.8115 294.978 89.0859 293.728 89.9746C292.478 90.8535 290.964 91.293 289.187 91.293ZM289.187 87.9824C290.134 87.9824 290.935 87.6748 291.589 87.0596C292.253 86.4443 292.756 85.5508 293.098 84.3789C293.449 83.1973 293.625 81.7715 293.625 80.1016C293.625 78.4219 293.449 76.9912 293.098 75.8096C292.756 74.6279 292.253 73.7295 291.589 73.1143C290.935 72.4893 290.134 72.1768 289.187 72.1768C287.761 72.1768 286.662 72.8701 285.891 74.2568C285.129 75.6338 284.748 77.582 284.748 80.1016C284.748 81.7715 284.919 83.1973 285.261 84.3789C285.603 85.5508 286.105 86.4443 286.77 87.0596C287.434 87.6748 288.239 87.9824 289.187 87.9824ZM306.486 89.7109V74.96H309.826V89.7109H306.486ZM300.788 84.0127V80.6582H315.524V84.0127H300.788Z" fill="white"/>
<path d="M243.82 177V166.814H247.56C248.28 166.814 248.877 166.933 249.351 167.17C249.825 167.407 250.178 167.728 250.41 168.134C250.647 168.535 250.766 168.986 250.766 169.487C250.766 169.911 250.686 170.269 250.526 170.561C250.371 170.852 250.164 171.085 249.904 171.258C249.645 171.431 249.357 171.559 249.043 171.641V171.736C249.385 171.755 249.717 171.864 250.041 172.064C250.365 172.265 250.631 172.55 250.841 172.919C251.055 173.284 251.162 173.73 251.162 174.259C251.162 174.778 251.039 175.245 250.793 175.66C250.551 176.07 250.178 176.396 249.672 176.638C249.166 176.879 248.517 177 247.724 177H243.82ZM245.358 175.688H247.573C248.312 175.688 248.84 175.544 249.159 175.257C249.478 174.97 249.638 174.612 249.638 174.184C249.638 173.86 249.556 173.566 249.392 173.302C249.232 173.033 249.002 172.819 248.701 172.659C248.4 172.5 248.045 172.42 247.635 172.42H245.358V175.688ZM245.358 171.224H247.423C247.765 171.224 248.075 171.158 248.353 171.025C248.631 170.893 248.849 170.706 249.009 170.465C249.173 170.219 249.255 169.934 249.255 169.61C249.255 169.191 249.107 168.84 248.811 168.558C248.519 168.271 248.07 168.127 247.464 168.127H245.358V171.224ZM253.257 171.996H255.479C256.409 171.992 257.124 172.222 257.626 172.687C258.131 173.151 258.387 173.751 258.391 174.484C258.391 174.963 258.277 175.391 258.049 175.77C257.822 176.148 257.491 176.449 257.058 176.672C256.625 176.891 256.099 177 255.479 177H252.143V169.357H253.586V175.715H255.479C255.903 175.715 256.252 175.605 256.525 175.387C256.798 175.163 256.937 174.876 256.942 174.525C256.937 174.156 256.798 173.855 256.525 173.623C256.252 173.391 255.903 173.277 255.479 173.281H253.257V171.996ZM259.478 177V169.357H260.955V177H259.478ZM262.23 177V169.357H268.45V177H266.994V170.643H263.665V177H262.23ZM272.938 177.157C272.223 177.157 271.596 176.993 271.059 176.665C270.525 176.337 270.111 175.877 269.814 175.284C269.523 174.692 269.377 174.004 269.377 173.22C269.377 172.427 269.523 171.734 269.814 171.142C270.111 170.545 270.525 170.082 271.059 169.754C271.596 169.426 272.223 169.262 272.938 169.262C273.658 169.262 274.285 169.426 274.818 169.754C275.351 170.082 275.766 170.545 276.062 171.142C276.359 171.734 276.507 172.427 276.507 173.22C276.507 174.004 276.359 174.692 276.062 175.284C275.766 175.877 275.351 176.337 274.818 176.665C274.285 176.993 273.658 177.157 272.938 177.157ZM272.938 175.906C273.408 175.906 273.795 175.783 274.101 175.537C274.406 175.291 274.631 174.965 274.777 174.56C274.928 174.149 275.003 173.703 275.003 173.22C275.003 172.728 274.928 172.276 274.777 171.866C274.631 171.456 274.406 171.128 274.101 170.882C273.795 170.636 273.408 170.513 272.938 170.513C272.474 170.513 272.088 170.636 271.783 170.882C271.482 171.128 271.257 171.456 271.106 171.866C270.956 172.276 270.881 172.728 270.881 173.22C270.881 173.703 270.956 174.149 271.106 174.56C271.257 174.965 271.482 175.291 271.783 175.537C272.088 175.783 272.474 175.906 272.938 175.906ZM276.832 177L276.825 175.715H277.091C277.378 175.71 277.604 175.626 277.768 175.462C277.937 175.293 278.062 174.995 278.144 174.566C278.231 174.138 278.288 173.532 278.315 172.748L278.452 169.357H283.777V177H282.321V170.643H279.819L279.696 173.247C279.669 173.876 279.607 174.425 279.511 174.895C279.416 175.364 279.274 175.756 279.087 176.07C278.901 176.38 278.661 176.613 278.37 176.768C278.078 176.923 277.723 177 277.303 177H276.832ZM288.34 177.157C287.593 177.157 286.946 176.995 286.399 176.672C285.852 176.348 285.43 175.893 285.134 175.305C284.842 174.712 284.696 174.022 284.696 173.233C284.696 172.45 284.84 171.759 285.127 171.162C285.419 170.565 285.827 170.1 286.351 169.768C286.879 169.43 287.499 169.262 288.21 169.262C288.643 169.262 289.062 169.332 289.468 169.474C289.874 169.615 290.238 169.838 290.562 170.144C290.885 170.449 291.14 170.845 291.327 171.333C291.519 171.821 291.614 172.409 291.614 173.097V173.63H285.537V172.516H290.849L290.158 172.885C290.158 172.415 290.085 172.001 289.94 171.641C289.794 171.281 289.575 171 289.283 170.8C288.996 170.595 288.639 170.492 288.21 170.492C287.782 170.492 287.415 170.595 287.11 170.8C286.809 171.005 286.579 171.276 286.419 171.613C286.26 171.951 286.18 172.32 286.18 172.721V173.479C286.18 174.004 286.271 174.448 286.453 174.812C286.636 175.177 286.889 175.455 287.212 175.646C287.54 175.838 287.921 175.934 288.354 175.934C288.636 175.934 288.891 175.893 289.119 175.811C289.352 175.729 289.552 175.605 289.721 175.441C289.89 175.277 290.017 175.075 290.104 174.833L291.512 175.1C291.398 175.51 291.197 175.87 290.91 176.18C290.623 176.49 290.261 176.731 289.823 176.904C289.39 177.073 288.896 177.157 288.34 177.157ZM297.681 172.536V173.821H293.546V172.536H297.681ZM293.956 169.357V177H292.514V169.357H293.956ZM298.721 169.357V177H297.271V169.357H298.721ZM305.17 172.536V173.821H301.035V172.536H305.17ZM301.445 169.357V177H300.002V169.357H301.445ZM306.209 169.357V177H304.76V169.357H306.209ZM308.606 171.996H310.827C311.757 171.992 312.472 172.222 312.974 172.687C313.48 173.151 313.735 173.751 313.739 174.484C313.739 174.963 313.625 175.391 313.398 175.77C313.17 176.148 312.839 176.449 312.406 176.672C311.973 176.891 311.447 177 310.827 177H307.491V169.357H308.934V175.715H310.827C311.251 175.715 311.6 175.605 311.873 175.387C312.147 175.163 312.286 174.876 312.29 174.525C312.286 174.156 312.147 173.855 311.873 173.623C311.6 173.391 311.251 173.277 310.827 173.281H308.606V171.996ZM314.826 177V169.357H316.303V177H314.826ZM318.747 169.357L320.422 172.338L322.124 169.357H323.758L321.379 173.186L323.771 177H322.151L320.422 174.143L318.719 177H317.086L319.458 173.186L317.113 169.357H318.747ZM243.711 195V187.357H249.932V195H248.476V188.643H245.146V195H243.711ZM251.214 197.857V187.357H252.649V188.602H252.772C252.863 188.442 252.989 188.257 253.148 188.048C253.312 187.838 253.54 187.656 253.832 187.501C254.123 187.341 254.504 187.262 254.973 187.262C255.589 187.262 256.135 187.417 256.614 187.727C257.097 188.036 257.478 188.485 257.756 189.073C258.034 189.661 258.173 190.37 258.173 191.199C258.173 192.02 258.036 192.726 257.762 193.318C257.489 193.906 257.111 194.36 256.628 194.679C256.149 194.993 255.6 195.15 254.98 195.15C254.52 195.15 254.142 195.073 253.845 194.918C253.554 194.758 253.324 194.574 253.155 194.364C252.991 194.155 252.863 193.97 252.772 193.811H252.69V197.857H251.214ZM254.659 193.886C255.101 193.886 255.47 193.767 255.766 193.53C256.062 193.293 256.286 192.972 256.436 192.566C256.591 192.156 256.669 191.696 256.669 191.186C256.669 190.68 256.593 190.226 256.443 189.825C256.293 189.424 256.069 189.107 255.773 188.875C255.477 188.643 255.105 188.526 254.659 188.526C254.226 188.526 253.861 188.638 253.565 188.861C253.269 189.08 253.043 189.39 252.888 189.791C252.738 190.188 252.663 190.652 252.663 191.186C252.663 191.719 252.74 192.188 252.895 192.594C253.05 192.999 253.276 193.316 253.572 193.544C253.873 193.772 254.235 193.886 254.659 193.886ZM262.319 195.157C261.603 195.157 260.977 194.993 260.439 194.665C259.906 194.337 259.491 193.877 259.195 193.284C258.903 192.692 258.757 192.004 258.757 191.22C258.757 190.427 258.903 189.734 259.195 189.142C259.491 188.545 259.906 188.082 260.439 187.754C260.977 187.426 261.603 187.262 262.319 187.262C263.039 187.262 263.665 187.426 264.199 187.754C264.732 188.082 265.146 188.545 265.443 189.142C265.739 189.734 265.887 190.427 265.887 191.22C265.887 192.004 265.739 192.692 265.443 193.284C265.146 193.877 264.732 194.337 264.199 194.665C263.665 194.993 263.039 195.157 262.319 195.157ZM262.319 193.906C262.788 193.906 263.175 193.783 263.481 193.537C263.786 193.291 264.012 192.965 264.158 192.56C264.308 192.149 264.383 191.703 264.383 191.22C264.383 190.728 264.308 190.276 264.158 189.866C264.012 189.456 263.786 189.128 263.481 188.882C263.175 188.636 262.788 188.513 262.319 188.513C261.854 188.513 261.469 188.636 261.163 188.882C260.863 189.128 260.637 189.456 260.487 189.866C260.336 190.276 260.261 190.728 260.261 191.22C260.261 191.703 260.336 192.149 260.487 192.56C260.637 192.965 260.863 193.291 261.163 193.537C261.469 193.783 261.854 193.906 262.319 193.906ZM270.108 195.157C269.361 195.157 268.714 194.995 268.167 194.672C267.62 194.348 267.198 193.893 266.902 193.305C266.611 192.712 266.465 192.022 266.465 191.233C266.465 190.45 266.608 189.759 266.895 189.162C267.187 188.565 267.595 188.1 268.119 187.768C268.648 187.43 269.267 187.262 269.978 187.262C270.411 187.262 270.831 187.332 271.236 187.474C271.642 187.615 272.006 187.838 272.33 188.144C272.654 188.449 272.909 188.845 273.096 189.333C273.287 189.821 273.383 190.409 273.383 191.097V191.63H267.306V190.516H272.617L271.927 190.885C271.927 190.415 271.854 190.001 271.708 189.641C271.562 189.281 271.343 189 271.052 188.8C270.765 188.595 270.407 188.492 269.978 188.492C269.55 188.492 269.183 188.595 268.878 188.8C268.577 189.005 268.347 189.276 268.187 189.613C268.028 189.951 267.948 190.32 267.948 190.721V191.479C267.948 192.004 268.039 192.448 268.222 192.812C268.404 193.177 268.657 193.455 268.98 193.646C269.309 193.838 269.689 193.934 270.122 193.934C270.405 193.934 270.66 193.893 270.888 193.811C271.12 193.729 271.321 193.605 271.489 193.441C271.658 193.277 271.785 193.075 271.872 192.833L273.28 193.1C273.166 193.51 272.966 193.87 272.679 194.18C272.392 194.49 272.029 194.731 271.592 194.904C271.159 195.073 270.664 195.157 270.108 195.157ZM274.282 195V187.357H275.758V190.563H276.476L278.999 187.357H280.831L277.884 191.083L280.872 195H279.026L276.722 191.944H275.758V195H274.282ZM280.862 188.643V187.357H287.294V188.643H284.813V195H283.357V188.643H280.862ZM291.003 195.157C290.287 195.157 289.661 194.993 289.123 194.665C288.59 194.337 288.175 193.877 287.879 193.284C287.587 192.692 287.441 192.004 287.441 191.22C287.441 190.427 287.587 189.734 287.879 189.142C288.175 188.545 288.59 188.082 289.123 187.754C289.661 187.426 290.287 187.262 291.003 187.262C291.723 187.262 292.349 187.426 292.883 187.754C293.416 188.082 293.831 188.545 294.127 189.142C294.423 189.734 294.571 190.427 294.571 191.22C294.571 192.004 294.423 192.692 294.127 193.284C293.831 193.877 293.416 194.337 292.883 194.665C292.349 194.993 291.723 195.157 291.003 195.157ZM291.003 193.906C291.472 193.906 291.86 193.783 292.165 193.537C292.47 193.291 292.696 192.965 292.842 192.56C292.992 192.149 293.067 191.703 293.067 191.22C293.067 190.728 292.992 190.276 292.842 189.866C292.696 189.456 292.47 189.128 292.165 188.882C291.86 188.636 291.472 188.513 291.003 188.513C290.538 188.513 290.153 188.636 289.847 188.882C289.547 189.128 289.321 189.456 289.171 189.866C289.02 190.276 288.945 190.728 288.945 191.22C288.945 191.703 289.02 192.149 289.171 192.56C289.321 192.965 289.547 193.291 289.847 193.537C290.153 193.783 290.538 193.906 291.003 193.906ZM295.504 195V187.357H298.663C299.524 187.362 300.208 187.549 300.713 187.918C301.219 188.283 301.47 188.779 301.465 189.408C301.47 189.855 301.329 190.208 301.041 190.468C300.754 190.723 300.378 190.898 299.914 190.994C300.251 191.031 300.561 191.131 300.843 191.295C301.13 191.459 301.36 191.68 301.534 191.958C301.711 192.231 301.8 192.557 301.8 192.936C301.8 193.341 301.693 193.701 301.479 194.016C301.269 194.326 300.969 194.567 300.577 194.74C300.185 194.913 299.708 195 299.148 195H295.504ZM296.899 193.749H299.148C299.513 193.754 299.8 193.669 300.009 193.496C300.219 193.318 300.321 193.079 300.317 192.778C300.321 192.423 300.219 192.145 300.009 191.944C299.8 191.739 299.513 191.637 299.148 191.637H296.899V193.749ZM296.899 190.55H298.676C299.096 190.545 299.424 190.456 299.661 190.283C299.902 190.105 300.021 189.866 300.016 189.565C300.021 189.269 299.902 189.039 299.661 188.875C299.419 188.706 299.086 188.622 298.663 188.622H296.899V190.55Z" fill="white"/>
<defs>
<linearGradient id="paint0_linear_159_1550" x1="58" y1="0" x2="58" y2="236.538" gradientUnits="userSpaceOnUse">
<stop stop-color="#0000BF"/>
<stop offset="1" stop-color="#0000BF" stop-opacity="0"/>
</linearGradient>
<linearGradient id="paint1_linear_159_1550" x1="58.5" y1="0" x2="58.5" y2="352.488" gradientUnits="userSpaceOnUse">
<stop stop-color="white"/>
<stop offset="1" stop-color="#0000BF" stop-opacity="0"/>
</linearGradient>
<linearGradient id="paint2_linear_159_1550" x1="58" y1="-26.88" x2="58" y2="160" gradientUnits="userSpaceOnUse">
<stop stop-color="#0000BF" stop-opacity="0"/>
<stop offset="1" stop-color="#0000BF"/>
</linearGradient>
<clipPath id="clip0_159_1550">
<rect width="117" height="209" fill="white" transform="translate(116)"/>
</clipPath>
</defs>
</svg>
